<?xml version="1.0" encoding="UTF-8"?>
<svg id="_Слой_2" data-name="Слой 2" xmlns="http://www.w3.org/2000/svg" viewBox="0 0 34.87 35.21">
  <defs>
    <style>
      .cls-1, .cls-2, .cls-3, .cls-4 {
        fill: none;
      }

      .cls-5, .cls-6, .cls-2, .cls-7, .cls-8, .cls-3, .cls-4, .cls-9, .cls-10, .cls-11, .cls-12, .cls-13 {
        isolation: isolate;
      }

      .cls-5, .cls-6, .cls-2, .cls-7, .cls-8, .cls-3, .cls-4, .cls-9, .cls-10, .cls-12, .cls-13 {
        font-family: HiraKakuStd-W8-83pv-RKSJ-H, 'Hiragino Kaku Gothic Std';
      }

      .cls-5, .cls-6, .cls-7, .cls-8, .cls-9, .cls-10, .cls-12, .cls-13 {
        fill: #f4b900;
      }

      .cls-5, .cls-3 {
        font-size: 22.08px;
      }

      .cls-6 {
        letter-spacing: -.14em;
      }

      .cls-6, .cls-7, .cls-8, .cls-9, .cls-10 {
        font-size: 3.19px;
      }

      .cls-2, .cls-3, .cls-14, .cls-4 {
        stroke: #fff;
        stroke-miterlimit: 10;
      }

      .cls-2, .cls-4, .cls-12, .cls-13 {
        font-size: 12.75px;
      }

      .cls-2, .cls-12 {
        letter-spacing: -.05em;
      }

      .cls-7 {
        letter-spacing: -.12em;
      }

      .cls-8 {
        letter-spacing: -.18em;
      }

      .cls-14 {
        fill: #3aaa35;
      }

      .cls-4, .cls-13 {
        letter-spacing: -.1em;
      }

      .cls-9 {
        letter-spacing: -.2em;
      }

      .cls-10 {
        letter-spacing: -.17em;
      }
    </style>
  </defs>
  <g id="_Слой_1-2" data-name="Слой 1">
    <g id="_Слой_1-2" data-name=" Слой 1-2">
      <g>
        <rect class="cls-1" x="30.97" y="1.66" width=".65" height="1.18"/>
        <path class="cls-14" d="m34.33,14.31s0,.05,0,.07c-.1,1.33-.8,2.61-2,3.38l-16.54,10.61c-.14.09-.28.16-.42.23,0,0-.01,0-.02,0-.06.02-.12.05-.18.08-.12.06-.25.11-.38.15-.07.02-.13.04-.2.06-.11.03-.22.05-.33.07-.06.01-.13.03-.19.03-.09.01-.18.02-.26.03-.12,0-.23.01-.35.01-.09,0-.18,0-.26,0-.09,0-.18,0-.26-.01-.07,0-.14-.02-.21-.03-.64-.11-1.25-.37-1.78-.75-.06-.05-.12-.09-.18-.14h-.01v-.02s-.01,0-.02-.02c-.06-.03-.11-.08-.16-.13-.06-.06-.12-.11-.18-.17s-.11-.12-.17-.18c-.11-.13-.21-.26-.3-.39-.09-.14-.18-.28-.26-.43-.02-.04-.04-.08-.06-.12-.18-.35-.3-.72-.38-1.09-.02-.09-.03-.18-.05-.27-.01-.11-.02-.22-.03-.33l-1.34-19.68v-.24c0-.08,0-.15,0-.22,0-.05,0-.11,0-.16,0-.03,0-.06,0-.09,0-.07,0-.13.02-.2,0-.1.02-.19.04-.28,0-.07.02-.14.04-.21.02-.08.04-.16.07-.25.02-.06.04-.13.06-.19,0,0,0-.02.01-.03h0s0,0,0-.01c.02-.07.06-.13.08-.2.17-.39.4-.76.66-1.09.04-.05.09-.11.14-.16.06-.07.13-.14.2-.21s.13-.13.21-.19c.07-.05.13-.11.2-.16.06-.04.11-.08.17-.12.11-.07.23-.15.35-.21.06-.03.1-.05.16-.08.07-.04.14-.07.21-.1.08-.03.17-.07.25-.1.09-.03.19-.06.29-.09.11-.03.21-.06.32-.08.18-.04.37-.06.56-.08.24-.02.48-.01.72,0,.06,0,.12.01.19.02h.02c.13.02.27.05.4.08.07.01.13.03.2.05.23.06.46.16.68.27l.07.04,17.84,8.82c1.71.85,2.63,2.69,2.4,4.51h0Z"/>
        <g class="cls-11">
          <text class="cls-12" transform="translate(3.77 18.41) rotate(-15.42) scale(.97 1) skewX(.91)"><tspan x="0" y="0">Щ</tspan></text>
          <text class="cls-13" transform="translate(14.35 15.5) rotate(-15.42) scale(.97 1) skewX(.91)"><tspan x="0" y="0">о</tspan></text>
        </g>
        <g class="cls-11">
          <text class="cls-2" transform="translate(3.77 18.41) rotate(-15.42) scale(.97 1) skewX(.91)"><tspan x="0" y="0">Щ</tspan></text>
          <text class="cls-4" transform="translate(14.35 15.5) rotate(-15.42) scale(.97 1) skewX(.91)"><tspan x="0" y="0">о</tspan></text>
        </g>
        <g class="cls-11">
          <text class="cls-9" transform="translate(10.35 21.2) rotate(1.52) scale(.97 1) skewX(-.1)"><tspan x="0" y="0">т</tspan></text>
          <text class="cls-6" transform="translate(13.16 21.28) rotate(1.52) scale(.97 1) skewX(-.1)"><tspan x="0" y="0">р</tspan></text>
          <text class="cls-10" transform="translate(15.9 21.35) rotate(1.52) scale(.97 1) skewX(-.1)"><tspan x="0" y="0">е</tspan></text>
          <text class="cls-8" transform="translate(18.66 21.42) rotate(1.52) scale(.97 1) skewX(-.1)"><tspan x="0" y="0">б</tspan></text>
          <text class="cls-7" transform="translate(21.35 21.49) rotate(1.52) scale(.97 1) skewX(-.1)"><tspan x="0" y="0">а</tspan></text>
        </g>
        <g class="cls-11">
          <text class="cls-5" transform="translate(25.41 22.61) rotate(-.25) scale(.76 1) skewX(.02)"><tspan x="0" y="0">!</tspan></text>
        </g>
        <g class="cls-11">
          <text class="cls-3" transform="translate(25.41 22.61) rotate(-.25) scale(.76 1) skewX(.02)"><tspan x="0" y="0">!</tspan></text>
        </g>
      </g>
    </g>
  </g>
</svg>