<svg aria-hidden="true" style="position: absolute; width: 0; height: 0; overflow: hidden;" version="1.1" xmlns="http://www.w3.org/2000/svg" xmlns:xlink="http://www.w3.org/1999/xlink">
<defs>
<symbol id="icon-cart" viewBox="0 0 32 32">
<path d="M12 29c0 1.657-1.343 3-3 3s-3-1.343-3-3c0-1.657 1.343-3 3-3s3 1.343 3 3z"></path>
<path d="M32 29c0 1.657-1.343 3-3 3s-3-1.343-3-3c0-1.657 1.343-3 3-3s3 1.343 3 3z"></path>
<path d="M32 16v-12h-24c0-1.105-0.895-2-2-2h-6v2h4l1.502 12.877c-0.915 0.733-1.502 1.859-1.502 3.123 0 2.209 1.791 4 4 4h24v-2h-24c-1.105 0-2-0.895-2-2 0-0.007 0-0.014 0-0.020l26-3.98z"></path>
</symbol>
<symbol id="icon-phone" viewBox="0 0 32 32">
<path d="M22 20c-2 2-2 4-4 4s-4-2-6-4-4-4-4-6 2-2 4-4-4-8-6-8-6 6-6 6c0 4 4.109 12.109 8 16s12 8 16 8c0 0 6-4 6-6s-6-8-8-6z"></path>
</symbol>
<symbol id="icon-logo-sho" viewBox="0 0 32 32">
<path fill="#3aaa35" style="fill: var(--color1, #3aaa35)" d="M29.838 17.73c0 0 0 0.087 0 0-0.087 1.211-0.692 2.335-1.73 3.027l-14.357 9.168c-0.086 0.087-0.259 0.173-0.346 0.173 0 0 0 0 0 0-0.086 0-0.086 0.087-0.173 0.087-0.086 0.087-0.259 0.087-0.346 0.173-0.086 0-0.086 0-0.173 0.087-0.086 0-0.173 0.087-0.259 0.087s-0.086 0-0.173 0-0.173 0-0.259 0c-0.086 0-0.173 0-0.346 0-0.086 0-0.173 0-0.259 0s-0.173 0-0.259 0c-0.086 0-0.086 0-0.173 0-0.519-0.087-1.124-0.346-1.557-0.692-0.086 0-0.086-0.087-0.173-0.087v0c0 0 0 0 0 0s0 0 0 0c-0.086 0-0.086-0.087-0.173-0.087-0.086-0.087-0.086-0.087-0.173-0.173s-0.086-0.087-0.173-0.173-0.173-0.259-0.259-0.346c-0.086-0.087-0.173-0.259-0.259-0.346 0 0 0-0.087-0.086-0.087-0.173-0.346-0.259-0.605-0.346-0.951 0-0.087 0-0.173 0-0.259s0-0.173 0-0.259l-0.951-17.124v-0.259c0-0.086 0-0.173 0-0.173 0-0.086 0-0.086 0-0.173 0 0 0-0.086 0-0.086 0-0.086 0-0.086 0-0.173s0-0.173 0-0.259c0-0.086 0-0.086 0-0.173 0.087 0 0.087-0.086 0.173-0.173 0-0.086 0-0.086 0.087-0.173 0 0 0 0 0 0v0c0 0 0 0 0 0 0-0.086 0.087-0.086 0.087-0.173 0.087-0.346 0.259-0.692 0.519-0.951 0-0.087 0.087-0.087 0.087-0.173 0.087 0 0.173-0.087 0.173-0.173 0.087-0.087 0.087-0.087 0.173-0.173s0.086-0.087 0.173-0.173c0.086 0 0.086-0.087 0.173-0.087 0.086-0.087 0.173-0.087 0.259-0.173 0.086 0 0.086-0.087 0.173-0.087s0.086-0.087 0.173-0.087c0.086 0 0.173 0 0.259 0s0.173-0.087 0.259-0.087c0.086 0 0.173-0.087 0.259-0.087 0.173 0 0.346-0.087 0.519-0.087s0.432 0 0.605 0c0.086 0 0.086 0 0.173 0v0c0.086 0 0.259 0.087 0.346 0.087s0.086 0 0.173 0.087c0.173 0.087 0.432 0.173 0.605 0.259h0.086l15.395 7.611c1.47 0.778 2.249 2.335 2.076 3.892v0z"></path>
<path fill="#fff" style="fill: var(--color2, #fff)" d="M11.762 30.962c-0.086 0-0.173 0-0.173 0-0.086 0-0.259 0-0.346 0h-0.173c-0.692-0.087-1.211-0.346-1.73-0.692-0.086-0.087-0.086-0.087-0.173-0.173v0c-0.086 0-0.086-0.087-0.173-0.173l-0.086-0.087c0 0-0.086-0.087-0.086-0.087l-0.086-0.087c-0.086-0.087-0.173-0.259-0.259-0.346-0.086-0.173-0.173-0.259-0.259-0.432l-0.086-0.087c-0.173-0.346-0.259-0.692-0.346-1.038 0-0.087 0-0.173 0-0.173 0-0.173 0-0.259 0-0.346l-1.384-17.47c0-0.086 0-0.173 0-0.173 0-0.086 0-0.086 0-0.173v-0.086c0 0 0-0.086 0-0.173s0-0.173 0-0.259c0-0.086 0-0.173 0-0.173 0-0.086 0-0.173 0.087-0.259 0 0 0-0.086 0-0.086v-0.086l0.087-0.173c0.346-0.519 0.519-0.951 0.778-1.211 0-0.087 0.087-0.087 0.173-0.173l0.173-0.173c0.087-0.087 0.087-0.173 0.173-0.259s0.173-0.087 0.173-0.173l0.173-0.087c0.173 0 0.259-0.087 0.346-0.173l0.173-0.087c0.086 0 0.173-0.087 0.259-0.087 0.086-0.087 0.173-0.087 0.259-0.087s0.173-0.087 0.259-0.087c0.086 0 0.173-0.087 0.346-0.087s0.346-0.087 0.519-0.087c0.259 0 0.432 0 0.692 0h0.173c0.173 0 0.259 0.087 0.432 0.087 0.086 0 0.086 0 0.173 0.087 0.173 0.087 0.432 0.173 0.605 0.259l0.086 0.087 15.395 7.611c1.643 0.778 2.508 2.508 2.335 4.324v0.087c-0.087 1.297-0.778 2.508-1.903 3.2l-14.357 9.168c-0.086 0-0.086 0.087-0.173 0.087v0.173l-0.432 0.087c-0.086 0.087-0.259 0.087-0.346 0.173l-0.173 0.087c-0.086 0-0.173 0.087-0.346 0.087-0.086 0-0.173 0-0.173 0-0.086 0-0.173 0-0.259 0-0.173 0-0.259 0-0.346 0zM11.503 30.097h0.259c0.086 0 0.173 0 0.259 0s0.173 0 0.173 0 0.086 0 0.173 0 0.173 0 0.259-0.087l0.173-0.087c0.086 0 0.173-0.087 0.259-0.087l0.173-0.087c0.086-0.087 0.173-0.087 0.346-0.173l14.27-9.168c0.865-0.605 1.47-1.557 1.557-2.595v-0.432c0.087-1.297-0.692-2.595-1.903-3.114l-15.481-7.697c-0.173-0.087-0.346-0.173-0.519-0.173-0.086 0-0.086 0-0.173 0s-0.259-0.087-0.346-0.087h-0.173c-0.173 0-0.346 0-0.519 0s-0.259 0-0.432 0.087c-0.086 0-0.173 0-0.259 0.087-0.086 0-0.173 0.087-0.259 0.087l-0.173 0.087c0 0-0.086 0-0.086 0.087l-0.173 0.087c-0.086 0-0.173 0.087-0.259 0.173l-0.086-0.087c0 0-0.086 0.087-0.086 0.087-0.086 0.087-0.173 0.087-0.173 0.173l-0.173 0.173c0 0-0.086 0.087-0.086 0.087-0.259 0.259-0.432 0.519-0.519 0.865 0 0 0 0.086 0 0.086l-0.087 0.173c0 0 0 0 0 0.086s0 0.173-0.087 0.173c0 0.086 0 0.086 0 0.173s0 0.173 0 0.259c0 0.086 0 0.086 0 0.173v0.086c0 0 0 0.086 0 0.086 0 0.086 0 0.086 0 0.173v0.173l1.124 17.038c0 0.087 0 0.173 0 0.259s0 0.173 0 0.173c0.086 0.259 0.173 0.605 0.259 0.865l-0.259 0.259 0.346-0.173c0.086 0.087 0.173 0.259 0.173 0.346 0.086 0.087 0.173 0.173 0.259 0.346v0c0 0 0 0 0.086 0.087l0.346 0.259 0.173 0.087v0.087c0.432 0.259 0.865 0.519 1.384 0.605h0.173c0-0.087 0-0.087 0.086-0.087z"></path>
<path fill="#f4b900" style="fill: var(--color3, #f4b900)" d="M12.281 17.211c0.259-0.087 0.346-0.087 0.605-0.173 0.086 0.346 0.086 0.692 0.173 0.951l0.259 0.778c0.086 0.346 0.259 0.692 0.346 1.038l-2.249 0.605c0-0.259-0.086-0.519-0.173-0.778l-0.086-0.173-5.795 1.557c-0.778 0.173-0.951 0.259-1.47 0.432-0.087-0.605-0.173-0.951-0.346-1.557l-1.643-5.708c-0.173-0.692-0.346-1.038-0.519-1.557l1.989-0.519c0.087 0.519 0.173 0.865 0.346 1.557l1.557 5.362 1.557-0.432-1.557-5.362c-0.173-0.692-0.346-1.038-0.519-1.557l2.162-0.432c0.087 0.519 0.173 0.865 0.346 1.557l1.557 5.362 1.557-0.432-1.557-5.362c-0.173-0.692-0.346-1.038-0.519-1.557l2.076-0.519c0.086 0.519 0.173 0.865 0.346 1.557l1.557 5.362z"></path>
<path fill="#f4b900" style="fill: var(--color3, #f4b900)" d="M13.405 15.395c-0.605-2.076 0.346-3.805 2.422-4.411s3.805 0.432 4.411 2.508c0.605 2.076-0.346 3.892-2.335 4.411-2.162 0.605-3.892-0.346-4.497-2.508zM15.395 14.876c0.346 1.211 1.124 1.73 1.989 1.47s1.211-1.038 0.865-2.249c-0.346-1.211-1.038-1.73-1.989-1.47-0.865 0.259-1.211 1.038-0.865 2.249z"></path>
<path fill="none" stroke="#fff" style="stroke: var(--color2, #fff)" stroke-linejoin="miter" stroke-linecap="butt" stroke-miterlimit="10" stroke-width="0.8649" d="M12.281 17.211c0.259-0.087 0.346-0.087 0.605-0.173 0.086 0.346 0.086 0.692 0.173 0.951l0.259 0.778c0.086 0.346 0.259 0.692 0.346 1.038l-2.249 0.605c0-0.259-0.086-0.519-0.173-0.778l-0.086-0.173-5.795 1.557c-0.778 0.173-0.951 0.259-1.47 0.432-0.087-0.605-0.173-0.951-0.346-1.557l-1.643-5.708c-0.173-0.692-0.346-1.038-0.519-1.557l1.989-0.519c0.087 0.519 0.173 0.865 0.346 1.557l1.557 5.362 1.557-0.432-1.557-5.362c-0.173-0.692-0.346-1.038-0.519-1.557l2.162-0.432c0.087 0.519 0.173 0.865 0.346 1.557l1.557 5.362 1.557-0.432-1.557-5.362c-0.173-0.692-0.346-1.038-0.519-1.557l2.076-0.519c0.086 0.519 0.173 0.865 0.346 1.557l1.557 5.362z"></path>
<path fill="none" stroke="#fff" style="stroke: var(--color2, #fff)" stroke-linejoin="miter" stroke-linecap="butt" stroke-miterlimit="10" stroke-width="0.8649" d="M13.405 15.395c-0.605-2.076 0.346-3.805 2.422-4.411s3.805 0.432 4.411 2.508c0.605 2.076-0.346 3.892-2.335 4.411-2.162 0.605-3.892-0.346-4.497-2.508zM15.395 14.876c0.346 1.211 1.124 1.73 1.989 1.47s1.211-1.038 0.865-2.249c-0.346-1.211-1.038-1.73-1.989-1.47-0.865 0.259-1.211 1.038-0.865 2.249z"></path>
<path fill="#f4b900" style="fill: var(--color3, #f4b900)" d="M10.119 23.87c0-0.087 0-0.259 0-0.432v-0.778h-0.173c-0.173 0-0.259 0-0.432 0v-0.519c0.086 0 0.259 0 0.432 0h0.865c0.173 0 0.259 0 0.432 0v0.519c-0.086 0-0.259 0-0.432 0h-0.173v0.778c0 0.173 0 0.259 0 0.432h-0.519z"></path>
<path fill="#f4b900" style="fill: var(--color3, #f4b900)" d="M12.541 22.314c0 0 0 0 0 0s0 0 0 0 0 0 0 0c0.173-0.087 0.346-0.087 0.519-0.087 0.519 0 0.778 0.346 0.778 0.778 0 0.519-0.346 0.778-0.865 0.778-0.259 0-0.346-0.087-0.519-0.173 0 0 0 0.087 0 0.087v0.087c0 0.173 0 0.173 0 0.346h-0.519c0-0.087 0-0.259 0-0.432v-1.124c0-0.173 0-0.259 0-0.432l0.605 0.173zM12.973 22.573c-0.259 0-0.432 0.173-0.432 0.432s0.173 0.432 0.432 0.432c0.259 0 0.346-0.173 0.432-0.432-0.086-0.259-0.259-0.432-0.432-0.432z"></path>
<path fill="#f4b900" style="fill: var(--color3, #f4b900)" d="M14.876 23.265c0 0.259 0.173 0.346 0.346 0.346 0.086 0 0.173 0 0.259-0.087 0 0 0.086-0.087 0.086-0.173l0.432 0.173c-0.086 0.173-0.086 0.173-0.173 0.259-0.173 0.173-0.346 0.259-0.605 0.259s-0.432-0.087-0.605-0.259c-0.173-0.173-0.259-0.432-0.259-0.692 0-0.519 0.346-0.865 0.865-0.865 0.432 0 0.692 0.259 0.778 0.692 0 0.087 0 0.173 0 0.346 0 0 0 0 0 0.087l-1.124-0.087zM15.568 22.919c0-0.173-0.173-0.259-0.346-0.259s-0.346 0.087-0.346 0.259h0.692z"></path>
<path fill="#f4b900" style="fill: var(--color3, #f4b900)" d="M17.643 22.141c-0.173 0-0.259 0-0.346 0.087 0 0.087-0.087 0.087-0.087 0.259 0.087-0.087 0.087-0.087 0.173-0.173 0.087 0 0.173-0.087 0.346-0.087 0.432 0 0.778 0.346 0.692 0.865 0 0.519-0.346 0.865-0.951 0.865-0.259 0-0.519-0.087-0.605-0.259-0.173-0.173-0.259-0.519-0.259-0.865 0-0.259 0.087-0.519 0.173-0.778 0.087-0.173 0.173-0.259 0.259-0.346s0.259-0.087 0.432-0.087h0.259c0.173 0 0.173 0 0.259-0.087l0.346 0.259c-0.087 0.087-0.087 0.087-0.173 0.173s-0.173 0.087-0.259 0.087l-0.259 0.087zM17.211 23.178c0 0.259 0.087 0.432 0.346 0.432 0.087 0 0.173 0 0.259-0.087s0.087-0.173 0.087-0.346-0.087-0.432-0.346-0.432c-0.173 0-0.346 0.173-0.346 0.432z"></path>
<path fill="#f4b900" style="fill: var(--color3, #f4b900)" d="M20.151 23.957c-0.087 0.087-0.087 0.087-0.173 0.087s-0.173 0.087-0.346 0.087c-0.173 0-0.259 0-0.432-0.087s-0.173-0.259-0.173-0.432c0-0.173 0.087-0.346 0.173-0.432 0.173-0.087 0.432-0.173 0.951-0.173v-0.087c0-0.087-0.087-0.173-0.259-0.173s-0.259 0.087-0.346 0.173l-0.519-0.087c0.087-0.173 0.087-0.259 0.259-0.346s0.346-0.173 0.605-0.173c0.259 0 0.519 0.087 0.605 0.173s0.087 0.259 0.087 0.432v0.778c0 0.173 0 0.259 0 0.432h-0.519l0.087-0.173zM20.238 23.351c-0.087 0-0.087 0-0.087 0-0.173 0-0.173 0-0.259 0-0.173 0-0.259 0.087-0.259 0.173s0.087 0.173 0.173 0.173c0.087 0 0.173 0 0.259-0.087s0.087-0.087 0.087-0.173l0.087-0.087z"></path>
<path fill="#f4b900" style="fill: var(--color3, #f4b900)" d="M23.438 20.584c0-0.432 0-0.519 0-0.951 0-0.173 0-0.173-0.087-1.384l-0.346-6.054c-0.087-0.951-0.087-1.989-0.173-2.595h3.373c-0.087 0.778-0.087 1.557-0.173 2.595l-0.259 6.054c0 0.778 0 1.211 0 1.47 0 0.173 0 0.346 0 0.865h-2.335zM23.265 25.514v-3.632h2.941v3.632h-2.941z"></path>
<path fill="none" stroke="#fff" style="stroke: var(--color2, #fff)" stroke-linejoin="miter" stroke-linecap="butt" stroke-miterlimit="10" stroke-width="0.8649" d="M23.438 20.584c0-0.432 0-0.519 0-0.951 0-0.173 0-0.173-0.087-1.384l-0.346-6.054c-0.087-0.951-0.087-1.989-0.173-2.595h3.373c-0.087 0.778-0.087 1.557-0.173 2.595l-0.259 6.054c0 0.778 0 1.211 0 1.47 0 0.173 0 0.346 0 0.865h-2.335zM23.265 25.514v-3.632h2.941v3.632h-2.941z"></path>
</symbol>
<symbol id="icon-logo-sho-expand-white--treba" viewBox="0 0 32 32">
<path fill="#3aaa35" style="fill: var(--color1, #3aaa35)" d="M29.838 17.73c0 0 0 0.087 0 0-0.087 1.211-0.692 2.335-1.73 3.027l-14.357 9.168c-0.086 0.087-0.259 0.173-0.346 0.173 0 0 0 0 0 0-0.086 0-0.086 0.087-0.173 0.087-0.086 0.087-0.259 0.087-0.346 0.173-0.086 0-0.086 0-0.173 0.087-0.086 0-0.173 0.087-0.259 0.087s-0.086 0-0.173 0-0.173 0-0.259 0c-0.086 0-0.173 0-0.346 0-0.086 0-0.173 0-0.259 0s-0.173 0-0.259 0c-0.086 0-0.086 0-0.173 0-0.519-0.087-1.124-0.346-1.557-0.692-0.086 0-0.086-0.087-0.173-0.087v0c0 0 0 0 0 0s0 0 0 0c-0.086 0-0.086-0.087-0.173-0.087-0.086-0.087-0.086-0.087-0.173-0.173s-0.086-0.087-0.173-0.173-0.173-0.259-0.259-0.346c-0.086-0.087-0.173-0.259-0.259-0.346 0 0 0-0.087-0.086-0.087-0.173-0.346-0.259-0.605-0.346-0.951 0-0.087 0-0.173 0-0.259s0-0.173 0-0.259l-0.951-17.124v-0.259c0-0.086 0-0.173 0-0.173 0-0.086 0-0.086 0-0.173 0 0 0-0.086 0-0.086 0-0.086 0-0.086 0-0.173s0-0.173 0-0.259c0-0.086 0-0.086 0-0.173 0.087 0 0.087-0.086 0.173-0.173 0-0.086 0-0.086 0.087-0.173 0 0 0 0 0 0v0c0 0 0 0 0 0 0-0.086 0.087-0.086 0.087-0.173 0.087-0.346 0.259-0.692 0.519-0.951 0-0.087 0.087-0.087 0.087-0.173 0.087 0 0.173-0.087 0.173-0.173 0.087-0.087 0.087-0.087 0.173-0.173s0.086-0.087 0.173-0.173c0.086 0 0.086-0.087 0.173-0.087 0.086-0.087 0.173-0.087 0.259-0.173 0.086 0 0.086-0.087 0.173-0.087s0.086-0.087 0.173-0.087c0.086 0 0.173 0 0.259 0s0.173-0.087 0.259-0.087c0.086 0 0.173-0.087 0.259-0.087 0.173 0 0.346-0.087 0.519-0.087s0.432 0 0.605 0c0.086 0 0.086 0 0.173 0v0c0.086 0 0.259 0.087 0.346 0.087s0.086 0 0.173 0.087c0.173 0.087 0.432 0.173 0.605 0.259h0.086l15.395 7.611c1.47 0.778 2.249 2.335 2.076 3.892v0z"></path>
<path fill="#fff" style="fill: var(--color2, #fff)" d="M11.762 30.962c-0.086 0-0.173 0-0.173 0-0.086 0-0.259 0-0.346 0h-0.173c-0.692-0.087-1.211-0.346-1.73-0.692-0.086-0.087-0.086-0.087-0.173-0.173v0c-0.086 0-0.086-0.087-0.173-0.173l-0.086-0.087c0 0-0.086-0.087-0.086-0.087l-0.086-0.087c-0.086-0.087-0.173-0.259-0.259-0.346-0.086-0.173-0.173-0.259-0.259-0.432l-0.086-0.087c-0.173-0.346-0.259-0.692-0.346-1.038 0-0.087 0-0.173 0-0.173 0-0.173 0-0.259 0-0.346l-1.384-17.47c0-0.086 0-0.173 0-0.173 0-0.086 0-0.086 0-0.173v-0.086c0 0 0-0.086 0-0.173s0-0.173 0-0.259c0-0.086 0-0.173 0-0.173 0-0.086 0-0.173 0.087-0.259 0 0 0-0.086 0-0.086v-0.086l0.087-0.173c0.346-0.519 0.519-0.951 0.778-1.211 0-0.087 0.087-0.087 0.173-0.173l0.173-0.173c0.087-0.087 0.087-0.173 0.173-0.259s0.173-0.087 0.173-0.173l0.173-0.087c0.173 0 0.259-0.087 0.346-0.173l0.173-0.087c0.086 0 0.173-0.087 0.259-0.087 0.086-0.087 0.173-0.087 0.259-0.087s0.173-0.087 0.259-0.087c0.086 0 0.173-0.087 0.346-0.087s0.346-0.087 0.519-0.087c0.259 0 0.432 0 0.692 0h0.173c0.173 0 0.259 0.087 0.432 0.087 0.086 0 0.086 0 0.173 0.087 0.173 0.087 0.432 0.173 0.605 0.259l0.086 0.087 15.395 7.611c1.643 0.778 2.508 2.508 2.335 4.324v0.087c-0.087 1.297-0.778 2.508-1.903 3.2l-14.357 9.168c-0.086 0-0.086 0.087-0.173 0.087v0.173l-0.432 0.087c-0.086 0.087-0.259 0.087-0.346 0.173l-0.173 0.087c-0.086 0-0.173 0.087-0.346 0.087-0.086 0-0.173 0-0.173 0-0.086 0-0.173 0-0.259 0-0.173 0-0.259 0-0.346 0zM11.503 30.097h0.259c0.086 0 0.173 0 0.259 0s0.173 0 0.173 0 0.086 0 0.173 0 0.173 0 0.259-0.087l0.173-0.087c0.086 0 0.173-0.087 0.259-0.087l0.173-0.087c0.086-0.087 0.173-0.087 0.346-0.173l14.27-9.168c0.865-0.605 1.47-1.557 1.557-2.595v-0.432c0.087-1.297-0.692-2.595-1.903-3.114l-15.481-7.697c-0.173-0.087-0.346-0.173-0.519-0.173-0.086 0-0.086 0-0.173 0s-0.259-0.087-0.346-0.087h-0.173c-0.173 0-0.346 0-0.519 0s-0.259 0-0.432 0.087c-0.086 0-0.173 0-0.259 0.087-0.086 0-0.173 0.087-0.259 0.087l-0.173 0.087c0 0-0.086 0-0.086 0.087l-0.173 0.087c-0.086 0-0.173 0.087-0.259 0.173l-0.086-0.087c0 0-0.086 0.087-0.086 0.087-0.086 0.087-0.173 0.087-0.173 0.173l-0.173 0.173c0 0-0.086 0.087-0.086 0.087-0.259 0.259-0.432 0.519-0.519 0.865 0 0 0 0.086 0 0.086l-0.087 0.173c0 0 0 0 0 0.086s0 0.173-0.087 0.173c0 0.086 0 0.086 0 0.173s0 0.173 0 0.259c0 0.086 0 0.086 0 0.173v0.086c0 0 0 0.086 0 0.086 0 0.086 0 0.086 0 0.173v0.173l1.124 17.038c0 0.087 0 0.173 0 0.259s0 0.173 0 0.173c0.086 0.259 0.173 0.605 0.259 0.865l-0.259 0.259 0.346-0.173c0.086 0.087 0.173 0.259 0.173 0.346 0.086 0.087 0.173 0.173 0.259 0.346v0c0 0 0 0 0.086 0.087l0.346 0.259 0.173 0.087v0.087c0.432 0.259 0.865 0.519 1.384 0.605h0.173c0-0.087 0-0.087 0.086-0.087z"></path>
<path fill="#f4b900" style="fill: var(--color3, #f4b900)" d="M12.281 17.211c0.259-0.087 0.346-0.087 0.605-0.173 0.086 0.346 0.086 0.692 0.173 0.951l0.259 0.778c0.086 0.346 0.259 0.692 0.346 1.038l-2.249 0.605c0-0.259-0.086-0.519-0.173-0.778l-0.086-0.173-5.795 1.557c-0.778 0.173-0.951 0.259-1.47 0.432-0.087-0.605-0.173-0.951-0.346-1.557l-1.643-5.708c-0.173-0.692-0.346-1.038-0.519-1.557l1.989-0.519c0.087 0.519 0.173 0.865 0.346 1.557l1.557 5.362 1.557-0.432-1.557-5.362c-0.173-0.692-0.346-1.038-0.519-1.557l2.162-0.432c0.087 0.519 0.173 0.865 0.346 1.557l1.557 5.362 1.557-0.432-1.557-5.362c-0.173-0.692-0.346-1.038-0.519-1.557l2.076-0.519c0.086 0.519 0.173 0.865 0.346 1.557l1.557 5.362z"></path>
<path fill="#f4b900" style="fill: var(--color3, #f4b900)" d="M13.405 15.395c-0.605-2.076 0.346-3.805 2.422-4.411s3.805 0.432 4.411 2.508c0.605 2.076-0.346 3.892-2.335 4.411-2.162 0.605-3.892-0.346-4.497-2.508zM15.395 14.876c0.346 1.211 1.124 1.73 1.989 1.47s1.211-1.038 0.865-2.249c-0.346-1.211-1.038-1.73-1.989-1.47-0.865 0.259-1.211 1.038-0.865 2.249z"></path>
<path fill="none" stroke="#fff" style="stroke: var(--color2, #fff)" stroke-linejoin="miter" stroke-linecap="butt" stroke-miterlimit="10" stroke-width="0.8649" d="M12.281 17.211c0.259-0.087 0.346-0.087 0.605-0.173 0.086 0.346 0.086 0.692 0.173 0.951l0.259 0.778c0.086 0.346 0.259 0.692 0.346 1.038l-2.249 0.605c0-0.259-0.086-0.519-0.173-0.778l-0.086-0.173-5.795 1.557c-0.778 0.173-0.951 0.259-1.47 0.432-0.087-0.605-0.173-0.951-0.346-1.557l-1.643-5.708c-0.173-0.692-0.346-1.038-0.519-1.557l1.989-0.519c0.087 0.519 0.173 0.865 0.346 1.557l1.557 5.362 1.557-0.432-1.557-5.362c-0.173-0.692-0.346-1.038-0.519-1.557l2.162-0.432c0.087 0.519 0.173 0.865 0.346 1.557l1.557 5.362 1.557-0.432-1.557-5.362c-0.173-0.692-0.346-1.038-0.519-1.557l2.076-0.519c0.086 0.519 0.173 0.865 0.346 1.557l1.557 5.362z"></path>
<path fill="none" stroke="#fff" style="stroke: var(--color2, #fff)" stroke-linejoin="miter" stroke-linecap="butt" stroke-miterlimit="10" stroke-width="0.8649" d="M13.405 15.395c-0.605-2.076 0.346-3.805 2.422-4.411s3.805 0.432 4.411 2.508c0.605 2.076-0.346 3.892-2.335 4.411-2.162 0.605-3.892-0.346-4.497-2.508zM15.395 14.876c0.346 1.211 1.124 1.73 1.989 1.47s1.211-1.038 0.865-2.249c-0.346-1.211-1.038-1.73-1.989-1.47-0.865 0.259-1.211 1.038-0.865 2.249z"></path>
<path fill="#fff" style="fill: var(--color2, #fff)" d="M10.119 23.87c0-0.087 0-0.259 0-0.432v-0.778h-0.173c-0.173 0-0.259 0-0.432 0v-0.519c0.086 0 0.259 0 0.432 0h0.865c0.173 0 0.259 0 0.432 0v0.519c-0.086 0-0.259 0-0.432 0h-0.173v0.778c0 0.173 0 0.259 0 0.432h-0.519z"></path>
<path fill="#fff" style="fill: var(--color2, #fff)" d="M12.541 22.314c0 0 0 0 0 0s0 0 0 0 0 0 0 0c0.173-0.087 0.346-0.087 0.519-0.087 0.519 0 0.778 0.346 0.778 0.778 0 0.519-0.346 0.778-0.865 0.778-0.259 0-0.346-0.087-0.519-0.173 0 0 0 0.087 0 0.087v0.087c0 0.173 0 0.173 0 0.346h-0.519c0-0.087 0-0.259 0-0.432v-1.124c0-0.173 0-0.259 0-0.432l0.605 0.173zM12.973 22.573c-0.259 0-0.432 0.173-0.432 0.432s0.173 0.432 0.432 0.432c0.259 0 0.346-0.173 0.432-0.432-0.086-0.259-0.259-0.432-0.432-0.432z"></path>
<path fill="#fff" style="fill: var(--color2, #fff)" d="M14.876 23.265c0 0.259 0.173 0.346 0.346 0.346 0.086 0 0.173 0 0.259-0.087 0 0 0.086-0.087 0.086-0.173l0.432 0.173c-0.086 0.173-0.086 0.173-0.173 0.259-0.173 0.173-0.346 0.259-0.605 0.259s-0.432-0.087-0.605-0.259c-0.173-0.173-0.259-0.432-0.259-0.692 0-0.519 0.346-0.865 0.865-0.865 0.432 0 0.692 0.259 0.778 0.692 0 0.087 0 0.173 0 0.346 0 0 0 0 0 0.087l-1.124-0.087zM15.568 22.919c0-0.173-0.173-0.259-0.346-0.259s-0.346 0.087-0.346 0.259h0.692z"></path>
<path fill="#fff" style="fill: var(--color2, #fff)" d="M17.643 22.141c-0.173 0-0.259 0-0.346 0.087 0 0.087-0.087 0.087-0.087 0.259 0.087-0.087 0.087-0.087 0.173-0.173 0.087 0 0.173-0.087 0.346-0.087 0.432 0 0.778 0.346 0.692 0.865 0 0.519-0.346 0.865-0.951 0.865-0.259 0-0.519-0.087-0.605-0.259-0.173-0.173-0.259-0.519-0.259-0.865 0-0.259 0.087-0.519 0.173-0.778 0.087-0.173 0.173-0.259 0.259-0.346s0.259-0.087 0.432-0.087h0.259c0.173 0 0.173 0 0.259-0.087l0.346 0.259c-0.087 0.087-0.087 0.087-0.173 0.173s-0.173 0.087-0.259 0.087l-0.259 0.087zM17.211 23.178c0 0.259 0.087 0.432 0.346 0.432 0.087 0 0.173 0 0.259-0.087s0.087-0.173 0.087-0.346-0.087-0.432-0.346-0.432c-0.173 0-0.346 0.173-0.346 0.432z"></path>
<path fill="#fff" style="fill: var(--color2, #fff)" d="M20.151 23.957c-0.087 0.087-0.087 0.087-0.173 0.087s-0.173 0.087-0.346 0.087c-0.173 0-0.259 0-0.432-0.087s-0.173-0.259-0.173-0.432c0-0.173 0.087-0.346 0.173-0.432 0.173-0.087 0.432-0.173 0.951-0.173v-0.087c0-0.087-0.087-0.173-0.259-0.173s-0.259 0.087-0.346 0.173l-0.519-0.087c0.087-0.173 0.087-0.259 0.259-0.346s0.346-0.173 0.605-0.173c0.259 0 0.519 0.087 0.605 0.173s0.087 0.259 0.087 0.432v0.778c0 0.173 0 0.259 0 0.432h-0.519l0.087-0.173zM20.238 23.351c-0.087 0-0.087 0-0.087 0-0.173 0-0.173 0-0.259 0-0.173 0-0.259 0.087-0.259 0.173s0.087 0.173 0.173 0.173c0.087 0 0.173 0 0.259-0.087s0.087-0.087 0.087-0.173l0.087-0.087z"></path>
<path fill="#f4b900" style="fill: var(--color3, #f4b900)" d="M23.438 20.584c0-0.432 0-0.519 0-0.951 0-0.173 0-0.173-0.087-1.384l-0.346-6.054c-0.087-0.951-0.087-1.989-0.173-2.595h3.373c-0.087 0.778-0.087 1.557-0.173 2.595l-0.259 6.054c0 0.778 0 1.211 0 1.47 0 0.173 0 0.346 0 0.865h-2.335zM23.265 25.514v-3.632h2.941v3.632h-2.941z"></path>
<path fill="none" stroke="#fff" style="stroke: var(--color2, #fff)" stroke-linejoin="miter" stroke-linecap="butt" stroke-miterlimit="10" stroke-width="0.8649" d="M23.438 20.584c0-0.432 0-0.519 0-0.951 0-0.173 0-0.173-0.087-1.384l-0.346-6.054c-0.087-0.951-0.087-1.989-0.173-2.595h3.373c-0.087 0.778-0.087 1.557-0.173 2.595l-0.259 6.054c0 0.778 0 1.211 0 1.47 0 0.173 0 0.346 0 0.865h-2.335zM23.265 25.514v-3.632h2.941v3.632h-2.941z"></path>
</symbol>
<symbol id="icon-logo-sho-circle" viewBox="0 0 38 32">
<path fill="#05b400" style="fill: var(--color1, #05b400); stroke: var(--color2, #fff)" stroke="#fff" stroke-linejoin="miter" stroke-linecap="butt" stroke-miterlimit="10" stroke-width="1.2261" d="M34.452 16c0 8.498-6.889 15.387-15.387 15.387s-15.387-6.889-15.387-15.387c0-8.498 6.889-15.387 15.387-15.387s15.387 6.889 15.387 15.387z"></path>
<path fill="#f4b900" style="fill: var(--color3, #f4b900)" d="M16.233 16.834c0.368-0.123 0.49-0.123 0.858-0.245 0.123 0.49 0.123 0.981 0.245 1.349l0.368 1.103c0.123 0.49 0.368 0.981 0.49 1.471l-3.188 0.858c0-0.368-0.123-0.736-0.245-1.103l-0.123-0.245-8.215 2.207c-1.103 0.245-1.349 0.368-2.084 0.613-0.123-0.858-0.245-1.349-0.49-2.207l-2.329-8.092c-0.245-0.981-0.49-1.471-0.736-2.207l2.82-0.736c0.123 0.736 0.245 1.226 0.49 2.207l2.207 7.602 2.207-0.613-2.207-7.602c-0.245-0.981-0.49-1.471-0.736-2.207l3.065-0.613c0.123 0.736 0.245 1.226 0.49 2.207l2.207 7.602 2.207-0.613-2.207-7.602c-0.245-0.981-0.49-1.471-0.736-2.207l2.943-0.736c0.123 0.736 0.245 1.226 0.49 2.207l2.207 7.602z"></path>
<path fill="#f4b900" style="fill: var(--color3, #f4b900)" d="M17.827 14.259c-0.858-2.943 0.49-5.395 3.433-6.253s5.395 0.613 6.253 3.556-0.49 5.517-3.31 6.253c-3.065 0.858-5.517-0.49-6.375-3.556zM20.647 13.523c0.49 1.716 1.594 2.452 2.82 2.084s1.716-1.471 1.226-3.188-1.471-2.452-2.82-2.084c-1.226 0.368-1.716 1.471-1.226 3.188z"></path>
<path fill="none" stroke="#fff" style="stroke: var(--color2, #fff)" stroke-linejoin="miter" stroke-linecap="butt" stroke-miterlimit="10" stroke-width="1.2261" d="M16.233 16.834c0.368-0.123 0.49-0.123 0.858-0.245 0.123 0.49 0.123 0.981 0.245 1.349l0.368 1.103c0.123 0.49 0.368 0.981 0.49 1.471l-3.188 0.858c0-0.368-0.123-0.736-0.245-1.103l-0.123-0.245-8.215 2.207c-1.103 0.245-1.349 0.368-2.084 0.613-0.123-0.858-0.245-1.349-0.49-2.207l-2.329-8.092c-0.245-0.981-0.49-1.471-0.736-2.207l2.82-0.736c0.123 0.736 0.245 1.226 0.49 2.207l2.207 7.602 2.207-0.613-2.207-7.602c-0.245-0.981-0.49-1.471-0.736-2.207l3.065-0.613c0.123 0.736 0.245 1.226 0.49 2.207l2.207 7.602 2.207-0.613-2.207-7.602c-0.245-0.981-0.49-1.471-0.736-2.207l2.943-0.736c0.123 0.736 0.245 1.226 0.49 2.207l2.207 7.602z"></path>
<path fill="none" stroke="#fff" style="stroke: var(--color2, #fff)" stroke-linejoin="miter" stroke-linecap="butt" stroke-miterlimit="10" stroke-width="1.2261" d="M17.827 14.259c-0.858-2.943 0.49-5.395 3.433-6.253s5.395 0.613 6.253 3.556-0.49 5.517-3.31 6.253c-3.065 0.858-5.517-0.49-6.375-3.556zM20.647 13.523c0.49 1.716 1.594 2.452 2.82 2.084s1.716-1.471 1.226-3.188-1.471-2.452-2.82-2.084c-1.226 0.368-1.716 1.471-1.226 3.188z"></path>
<path fill="#fff" style="fill: var(--color2, #fff)" d="M13.168 26.274v-1.716h-0.858v-0.736h2.452v0.736h-0.858v1.716h-0.736z"></path>
<path fill="#fff" style="fill: var(--color2, #fff)" d="M16.601 24.067v0c0.245-0.123 0.49-0.123 0.736-0.123 0.736 0 1.103 0.49 1.103 1.103 0 0.736-0.49 1.103-1.226 1.103-0.368 0-0.49-0.123-0.736-0.245v0.736h-0.736v-2.82l0.858 0.245zM17.214 24.435c-0.368 0-0.613 0.245-0.613 0.613s0.245 0.613 0.613 0.613 0.49-0.245 0.613-0.613c-0.123-0.368-0.368-0.613-0.613-0.613z"></path>
<path fill="#fff" style="fill: var(--color2, #fff)" d="M19.911 25.416c0 0.368 0.245 0.49 0.49 0.49 0.123 0 0.245 0 0.368-0.123 0 0 0.123-0.123 0.123-0.245l0.613 0.245q-0.123 0.245-0.245 0.368c-0.245 0.245-0.49 0.368-0.858 0.368s-0.613-0.123-0.858-0.368c-0.245-0.245-0.368-0.613-0.368-0.981 0-0.736 0.49-1.226 1.226-1.226 0.613 0 0.981 0.368 1.103 0.981v0.613l-1.594-0.123zM20.892 24.926c0-0.245-0.245-0.368-0.49-0.368s-0.49 0.123-0.49 0.368h0.981z"></path>
<path fill="#fff" style="fill: var(--color2, #fff)" d="M23.834 23.822c-0.245 0-0.368 0-0.49 0.123 0 0.123-0.123 0.123-0.123 0.368l0.245-0.245c0.123 0 0.245-0.123 0.49-0.123 0.613 0 1.103 0.49 0.981 1.226 0 0.736-0.49 1.226-1.349 1.226-0.368 0-0.736-0.123-0.858-0.368-0.245-0.245-0.368-0.736-0.368-1.226 0-0.368 0.123-0.736 0.245-1.103 0.123-0.245 0.245-0.368 0.368-0.49s0.368-0.123 0.613-0.123h0.368q0.245 0 0.368-0.123l0.49 0.368-0.245 0.245c-0.123 0.123-0.245 0.123-0.368 0.123l-0.368 0.123zM23.221 25.294c0 0.368 0.123 0.613 0.49 0.613 0.123 0 0.245 0 0.368-0.123s0.123-0.245 0.123-0.49-0.123-0.613-0.49-0.613c-0.245 0-0.49 0.245-0.49 0.613z"></path>
<path fill="#fff" style="fill: var(--color2, #fff)" d="M27.39 26.397q-0.123 0.123-0.245 0.123c-0.123 0-0.245 0.123-0.49 0.123s-0.368 0-0.613-0.123-0.245-0.368-0.245-0.613 0.123-0.49 0.245-0.613c0.245-0.123 0.613-0.245 1.349-0.245v-0.123c0-0.123-0.123-0.245-0.368-0.245s-0.368 0.123-0.49 0.245l-0.736-0.123c0.123-0.245 0.123-0.368 0.368-0.49s0.49-0.245 0.858-0.245 0.736 0.123 0.858 0.245 0.123 0.368 0.123 0.613v1.716h-0.736l0.123-0.245zM27.513 25.539h-0.49c-0.245 0-0.368 0.123-0.368 0.245s0.123 0.245 0.245 0.245 0.245 0 0.368-0.123q0.123-0.123 0.123-0.245l0.123-0.123z"></path>
<path fill="#f4b900" style="fill: var(--color3, #f4b900)" d="M32.049 21.615v-1.349q0-0.245-0.123-1.962l-0.49-8.582c-0.123-1.349-0.123-2.82-0.245-3.678h4.782c-0.123 1.103-0.123 2.207-0.245 3.678l-0.368 8.582v3.31h-3.31zM31.804 28.604v-5.149h4.169v5.149h-4.169z"></path>
<path fill="none" stroke="#fff" style="stroke: var(--color2, #fff)" stroke-linejoin="miter" stroke-linecap="butt" stroke-miterlimit="10" stroke-width="1.2261" d="M32.049 21.615v-1.349q0-0.245-0.123-1.962l-0.49-8.582c-0.123-1.349-0.123-2.82-0.245-3.678h4.782c-0.123 1.103-0.123 2.207-0.245 3.678l-0.368 8.582v3.31h-3.31zM31.804 28.604v-5.149h4.169v5.149h-4.169z"></path>
</symbol>
<symbol id="icon--14" viewBox="0 0 33 32">
<path fill="#05b400" style="fill: var(--color1, #05b400); stroke: var(--color2, #fff)" stroke="#fff" stroke-linejoin="miter" stroke-linecap="butt" stroke-miterlimit="10" stroke-width="1.2308" d="M31.815 16c0 8.497-6.888 15.385-15.385 15.385s-15.385-6.888-15.385-15.385c0-8.497 6.888-15.385 15.385-15.385s15.385 6.888 15.385 15.385z"></path>
<path fill="#f4b900" style="fill: var(--color3, #f4b900); stroke: var(--color2, #fff)" stroke="#fff" stroke-linejoin="miter" stroke-linecap="butt" stroke-miterlimit="10" stroke-width="0.6154" d="M14.326 15.262c0.32-0.16 0.431-0.16 0.751-0.32 0.16 0.48 0.197 0.985 0.345 1.342l0.431 1.083c0.16 0.48 0.418 0.96 0.578 1.452l-2.782 1.132c-0.037-0.369-0.185-0.738-0.32-1.095l-0.135-0.234-7.163 2.917c-0.665 0.234-0.972 0.382-1.317 0.542-0.258 0.123-0.566-0.037-0.64-0.345-0.135-0.542-0.283-0.972-0.505-1.6l-2.831-8c-0.111-0.345-0.222-0.628-0.32-0.886-0.283-0.702 0-1.514 0.64-1.76l0.578-0.234c0.369-0.148 0.775 0.086 0.898 0.505s0.246 0.812 0.443 1.415l2.437 6.794c0.148 0.394 0.542 0.591 0.886 0.455l0.64-0.271c0.357-0.148 0.529-0.603 0.382-0.997l-2.425-6.782c-0.222-0.702-0.431-1.145-0.628-1.612-0.123-0.295 0-0.64 0.283-0.726l1.723-0.566c0.246-0.074 0.505 0.086 0.578 0.357 0.135 0.492 0.283 0.948 0.517 1.686l2.437 6.794c0.148 0.394 0.542 0.591 0.886 0.455l0.64-0.271c0.357-0.148 0.529-0.603 0.382-0.997l-2.425-6.782c-0.234-0.714-0.431-1.169-0.64-1.637-0.123-0.283 0-0.615 0.258-0.714l1.625-0.628c0.246-0.098 0.529 0.062 0.603 0.357 0.135 0.48 0.283 0.935 0.505 1.662l2.683 7.508z"></path>
<path fill="#f4b900" style="fill: var(--color3, #f4b900); stroke: var(--color2, #fff)" stroke="#fff" stroke-linejoin="miter" stroke-linecap="butt" stroke-miterlimit="10" stroke-width="0.6154" d="M17.058 14.732c-0.615-2.154 0.345-3.951 2.449-4.578s3.852 0.455 4.455 2.609-0.345 4.049-2.363 4.578c-2.191 0.628-3.938-0.357-4.542-2.609zM19.065 14.191c0.345 1.255 1.132 1.797 2.006 1.526s1.218-1.083 0.874-2.338-1.046-1.797-2.006-1.526c-0.874 0.271-1.218 1.083-0.874 2.338z"></path>
<path fill="#fff" style="fill: var(--color2, #fff)" d="M7.311 22.4h2.978v0.862h-0.997v2.646h-0.985v-2.646h-0.997v-0.862z"></path>
<path fill="#fff" style="fill: var(--color2, #fff)" d="M10.732 22.4h1.625c0.357 0 0.615 0.098 0.8 0.283 0.172 0.185 0.271 0.455 0.271 0.8s-0.098 0.628-0.283 0.837c-0.197 0.197-0.492 0.295-0.886 0.295h-0.542v1.305h-0.985v-3.508zM11.717 23.902h0.246c0.185 0 0.32-0.037 0.394-0.111s0.111-0.16 0.111-0.283-0.037-0.209-0.098-0.283c-0.062-0.074-0.197-0.111-0.369-0.111h-0.283v0.788z"></path>
<path fill="#fff" style="fill: var(--color2, #fff)" d="M13.932 22.4h2.622v0.751h-1.649v0.554h1.526v0.714h-1.526v0.689h1.686v0.8h-2.671v-3.508z"></path>
<path fill="#fff" style="fill: var(--color2, #fff)" d="M18.117 23.754h0.529c0.48 0 0.837 0.098 1.071 0.283s0.345 0.48 0.345 0.874c0 0.32-0.111 0.566-0.32 0.738s-0.517 0.258-0.911 0.258h-1.686v-3.508h2.671v0.714h-1.698v0.64zM18.117 25.157h0.505c0.308 0 0.455-0.123 0.455-0.369 0-0.209-0.148-0.32-0.455-0.32h-0.505v0.689z"></path>
<path fill="#fff" style="fill: var(--color2, #fff)" d="M22.535 25.329h-1.108l-0.16 0.578h-0.997l1.194-3.508h1.071l1.194 3.508h-1.022l-0.16-0.578zM22.326 24.566l-0.345-1.268-0.345 1.268h0.689z"></path>
<path fill="#f4b900" style="fill: var(--color3, #f4b900); stroke: var(--color2, #fff)" stroke="#fff" stroke-linejoin="miter" stroke-linecap="butt" stroke-miterlimit="10" stroke-width="0.6154" d="M26.105 15.372l0.295-1.071q0.049-0.197 0.345-1.588l1.538-6.917c0.16-0.812 0.369-1.674 0.517-2.351 0.074-0.332 0.382-0.542 0.689-0.455l2.388 0.665c0.308 0.086 0.468 0.431 0.357 0.751-0.234 0.677-0.455 1.403-0.775 2.277l-2.166 6.732-0.455 1.649-0.271 0.972-2.449-0.689zM24.529 20.308l0.825-2.954c0.086-0.308 0.394-0.505 0.689-0.418l2.031 0.566c0.295 0.086 0.455 0.406 0.369 0.714l-0.825 2.954c-0.086 0.308-0.394 0.505-0.689 0.418l-2.031-0.566c-0.295-0.086-0.455-0.406-0.369-0.714z"></path>
</symbol>
<symbol id="icon--1" viewBox="0 0 36 32">
<path fill="#05b400" style="fill: var(--color1, #05b400); stroke: var(--color2, #fff)" stroke="#fff" stroke-linejoin="miter" stroke-linecap="butt" stroke-miterlimit="10" stroke-width="1.2308" d="M35.212 16c0 8.497-6.888 15.385-15.385 15.385s-15.385-6.888-15.385-15.385c0-8.497 6.888-15.385 15.385-15.385s15.385 6.888 15.385 15.385z"></path>
<path fill="#f4b900" style="fill: var(--color3, #f4b900); stroke: var(--color2, #fff)" stroke="#fff" stroke-linejoin="miter" stroke-linecap="butt" stroke-miterlimit="10" stroke-width="0.6154" d="M17.28 13.822q0.443-0.148 0.886-0.443c0.148 0.591 0.295 1.194 0.443 1.637l0.591 1.342c0.148 0.591 0.443 1.194 0.738 1.785l-3.397 1.342c0-0.443-0.148-0.898-0.443-1.342l-0.148-0.295-8.578 3.582c-0.738 0.295-1.182 0.443-1.625 0.591-0.295 0.148-0.738 0-0.738-0.443-0.148-0.591-0.295-1.194-0.591-1.932l-3.557-9.538c-0.148-0.443-0.295-0.751-0.443-1.046-0.295-0.898 0-1.785 0.738-2.092l0.738-0.295c0.443-0.148 0.886 0.148 1.034 0.591s0.295 1.046 0.591 1.785l2.954 8.197c0.148 0.443 0.591 0.751 1.034 0.591l0.738-0.295c0.443-0.148 0.591-0.751 0.443-1.194l-2.954-8.197c-0.295-0.898-0.443-1.342-0.738-1.932-0.148-0.295 0-0.751 0.295-0.898l2.068-0.751c0.295-0.148 0.591 0.148 0.738 0.443 0.148 0.591 0.295 1.194 0.591 2.092l2.954 8.197c0.148 0.443 0.591 0.751 1.034 0.591l0.738-0.295c0.443-0.148 0.591-0.751 0.443-1.194l-2.954-8.197c-0.295-0.898-0.591-1.342-0.738-1.932-0.148-0.295 0-0.751 0.295-0.898l1.92-0.751c0.295-0.148 0.591 0.148 0.738 0.443 0.148 0.591 0.295 1.194 0.591 1.932l3.545 8.788z"></path>
<path fill="#f4b900" style="fill: var(--color3, #f4b900); stroke: var(--color2, #fff)" stroke="#fff" stroke-linejoin="miter" stroke-linecap="butt" stroke-miterlimit="10" stroke-width="0.6154" d="M20.443 14.769c-0.615-2.215 0.369-3.938 2.462-4.554s3.815 0.492 4.431 2.585c0.615 2.215-0.369 4.062-2.338 4.554-2.215 0.615-3.938-0.369-4.554-2.585zM22.412 14.277c0.369 1.231 1.108 1.846 1.969 1.477 0.862-0.246 1.231-1.108 0.862-2.338s-1.108-1.846-1.969-1.477c-0.862 0.246-1.231 1.108-0.862 2.338z"></path>
<path fill="#fff" style="fill: var(--color2, #fff)" d="M10.671 22.449h2.978v0.862h-0.997v2.646h-0.985v-2.646h-0.997v-0.862z"></path>
<path fill="#fff" style="fill: var(--color2, #fff)" d="M14.092 22.449h1.625c0.357 0 0.615 0.098 0.8 0.283 0.172 0.185 0.271 0.455 0.271 0.8s-0.098 0.628-0.283 0.837c-0.197 0.197-0.492 0.295-0.886 0.295h-0.542v1.305h-0.985v-3.508zM15.077 23.951h0.246c0.185 0 0.32-0.037 0.394-0.111s0.111-0.16 0.111-0.283-0.037-0.209-0.098-0.283c-0.062-0.074-0.197-0.111-0.369-0.111h-0.283v0.788z"></path>
<path fill="#fff" style="fill: var(--color2, #fff)" d="M17.292 22.449h2.622v0.751h-1.649v0.554h1.526v0.714h-1.526v0.689h1.686v0.8h-2.671v-3.508z"></path>
<path fill="#fff" style="fill: var(--color2, #fff)" d="M21.477 23.803h0.529c0.48 0 0.837 0.098 1.071 0.283s0.345 0.48 0.345 0.874c0 0.32-0.111 0.566-0.32 0.738s-0.517 0.258-0.911 0.258h-1.686v-3.508h2.671v0.714h-1.698v0.64zM21.477 25.206h0.505c0.308 0 0.455-0.123 0.455-0.369 0-0.209-0.148-0.32-0.455-0.32h-0.505v0.689z"></path>
<path fill="#fff" style="fill: var(--color2, #fff)" d="M25.883 25.378h-1.108l-0.16 0.578h-0.997l1.194-3.508h1.071l1.194 3.508h-1.022l-0.16-0.578zM25.674 24.615l-0.345-1.268-0.345 1.268h0.702z"></path>
<path fill="#f4b900" style="fill: var(--color3, #f4b900); stroke: var(--color2, #fff)" stroke="#fff" stroke-linejoin="miter" stroke-linecap="butt" stroke-miterlimit="10" stroke-width="0.6154" d="M29.428 15.385c0.123-0.492 0.123-0.615 0.246-1.108q0-0.246 0.369-1.6l1.477-6.892c0.123-0.862 0.369-1.723 0.492-2.338 0.123-0.369 0.369-0.492 0.738-0.492l2.338 0.615c0.246 0.123 0.492 0.369 0.369 0.738-0.246 0.615-0.492 1.354-0.738 2.338l-2.215 6.769c-0.246 0.862-0.369 1.354-0.492 1.6 0 0.246-0.123 0.369-0.246 0.985l-2.338-0.615zM27.951 20.308l0.862-2.954c0.123-0.369 0.369-0.492 0.738-0.369l2.092 0.615c0.246 0.123 0.492 0.369 0.369 0.738l-0.862 2.954c-0.123 0.369-0.369 0.492-0.738 0.369l-2.092-0.615c-0.369 0-0.492-0.369-0.369-0.738z"></path>
</symbol>
<symbol id="icon--2" viewBox="0 0 60 32">
<path fill="none" stroke="#fff" style="stroke: var(--color1, #fff)" stroke-linejoin="miter" stroke-linecap="butt" stroke-miterlimit="10" stroke-width="2.9754" d="M7.334 1.488h45.24c3.229 0 5.847 2.618 5.847 5.847v17.331c0 3.229-2.618 5.847-5.847 5.847h-45.24c-3.229 0-5.847-2.618-5.847-5.847v-17.331c0-3.229 2.618-5.847 5.847-5.847z"></path>
<path fill="#fff" style="fill: var(--color1, #fff)" d="M13.568 12.028h-2.841v-1.398c0-0.655-0.037-1.064-0.112-1.242s-0.193-0.268-0.364-0.268c-0.186 0-0.327 0.119-0.417 0.364-0.097 0.238-0.141 0.602-0.141 1.093 0 0.632 0.052 1.101 0.156 1.421s0.387 0.699 0.863 1.153c1.361 1.294 2.224 2.358 2.574 3.184 0.357 0.833 0.528 2.165 0.528 4.017 0 1.339-0.097 2.328-0.298 2.968-0.193 0.64-0.573 1.168-1.138 1.599s-1.22 0.647-1.964 0.647c-0.818 0-1.517-0.245-2.098-0.744s-0.96-1.131-1.138-1.897-0.268-1.86-0.268-3.273v-1.235h2.841v2.291c0 0.707 0.037 1.16 0.119 1.361s0.223 0.305 0.424 0.305 0.357-0.126 0.454-0.387c0.097-0.253 0.149-0.64 0.149-1.138 0-1.108-0.097-1.837-0.283-2.172-0.193-0.342-0.669-0.915-1.436-1.711-0.759-0.803-1.265-1.391-1.51-1.755s-0.454-0.87-0.617-1.51c-0.164-0.647-0.245-1.465-0.245-2.47 0-1.443 0.112-2.499 0.342-3.161 0.231-0.669 0.603-1.19 1.116-1.562s1.138-0.565 1.86-0.565c0.796 0 1.473 0.208 2.031 0.617s0.93 0.93 1.116 1.555c0.179 0.625 0.275 1.689 0.275 3.184v0.744z"></path>
<path fill="#fff" style="fill: var(--color1, #fff)" d="M21.824 6.33v18.834h-3.065v-7.914h-0.915v7.914h-3.065v-18.834h3.065v6.739h0.915v-6.739h3.065z"></path>
<path fill="#fff" style="fill: var(--color1, #fff)" d="M30.051 17.361c0 1.889-0.030 3.236-0.082 4.017-0.059 0.788-0.231 1.51-0.528 2.157s-0.692 1.153-1.19 1.503c-0.498 0.35-1.079 0.521-1.748 0.521-0.632 0-1.198-0.164-1.696-0.498-0.506-0.327-0.907-0.826-1.212-1.48-0.305-0.662-0.491-1.376-0.543-2.15-0.059-0.774-0.089-2.135-0.089-4.069v-3.221c0-1.889 0.030-3.236 0.082-4.017 0.052-0.788 0.231-1.51 0.521-2.157s0.692-1.153 1.19-1.503c0.498-0.35 1.079-0.521 1.748-0.521 0.632 0 1.198 0.164 1.696 0.498s0.907 0.826 1.212 1.48c0.305 0.662 0.491 1.376 0.543 2.15 0.059 0.774 0.089 2.135 0.089 4.069v3.221zM26.987 11.172c0-0.878-0.030-1.436-0.089-1.681s-0.186-0.364-0.372-0.364c-0.156 0-0.283 0.097-0.364 0.298s-0.126 0.781-0.126 1.748v8.792c0 1.093 0.030 1.77 0.082 2.023 0.059 0.253 0.186 0.387 0.387 0.387s0.342-0.149 0.402-0.439c0.059-0.298 0.089-0.997 0.089-2.105v-8.658z"></path>
<path fill="#fff" style="fill: var(--color1, #fff)" d="M38.055 8.309v0.112c0.037-0.045 0.097-0.074 0.156-0.097s0.126-0.030 0.193-0.030c0.082 0 0.156 0.015 0.223 0.045 0.059 0.030 0.097 0.067 0.119 0.112 0.015 0.045 0.022 0.112 0.022 0.208v0.521c0 0.112-0.007 0.193-0.030 0.245s-0.059 0.089-0.119 0.112-0.134 0.045-0.216 0.045c-0.067 0-0.134-0.007-0.186-0.030s-0.112-0.052-0.156-0.097v0.283h-0.55v-1.421h0.558zM38.211 8.673c0-0.074 0-0.126-0.015-0.141-0.007-0.015-0.030-0.022-0.067-0.022s-0.059 0.007-0.067 0.030c-0.007 0.022-0.015 0.067-0.015 0.134v0.513c0 0.074 0 0.119 0.015 0.141s0.037 0.030 0.067 0.030 0.059-0.007 0.067-0.030c0.007-0.015 0.015-0.059 0.015-0.126v-0.536z"></path>
<path fill="#fff" style="fill: var(--color1, #fff)" d="M39.49 8.309l-0.022 0.164c0.082-0.119 0.193-0.179 0.35-0.186v0.439c-0.104 0-0.171 0.007-0.223 0.030-0.045 0.022-0.074 0.045-0.089 0.082s-0.015 0.112-0.015 0.231v0.491h-0.55v-1.242h0.55z"></path>
<path fill="#fff" style="fill: var(--color1, #fff)" d="M41.179 8.74v0.305c0 0.112-0.007 0.193-0.022 0.245s-0.052 0.104-0.104 0.149c-0.052 0.045-0.119 0.082-0.208 0.097-0.082 0.022-0.179 0.030-0.29 0.030-0.119 0-0.223-0.007-0.305-0.030s-0.149-0.045-0.193-0.082-0.082-0.082-0.097-0.134c-0.022-0.052-0.030-0.134-0.030-0.238v-0.32c0-0.119 0.015-0.208 0.052-0.268 0.037-0.067 0.104-0.119 0.193-0.156 0.097-0.037 0.216-0.059 0.364-0.059 0.126 0 0.231 0.015 0.32 0.037s0.156 0.059 0.201 0.097 0.082 0.082 0.097 0.126c0.015 0.045 0.030 0.112 0.030 0.193zM40.629 8.643c0-0.067 0-0.104-0.015-0.119-0.007-0.015-0.030-0.022-0.059-0.022s-0.052 0.007-0.067 0.022c-0.007 0.015-0.015 0.059-0.015 0.119v0.565c0 0.059 0 0.097 0.015 0.112 0.007 0.015 0.030 0.030 0.067 0.030s0.052-0.007 0.067-0.022c0.007-0.015 0.015-0.052 0.015-0.104v-0.573z"></path>
<path fill="#fff" style="fill: var(--color1, #fff)" d="M42.607 8.033v1.517h-0.55v-0.089c-0.052 0.037-0.104 0.067-0.164 0.082s-0.119 0.030-0.186 0.030c-0.082 0-0.156-0.015-0.223-0.045s-0.104-0.067-0.119-0.104c-0.015-0.037-0.030-0.104-0.030-0.201v-0.58c0-0.097 0.007-0.164 0.030-0.201 0.015-0.037 0.059-0.074 0.119-0.104s0.141-0.045 0.223-0.045c0.067 0 0.126 0.007 0.186 0.022s0.104 0.045 0.156 0.074v-0.35h0.55zM42.057 8.621c0-0.045 0-0.074-0.015-0.089-0.007-0.015-0.030-0.022-0.067-0.022s-0.052 0-0.067 0.022c-0.007 0.015-0.015 0.045-0.015 0.097v0.61c0 0.052 0 0.082 0.015 0.097s0.030 0.022 0.059 0.022c0.037 0 0.059-0.007 0.067-0.030 0.015-0.015 0.015-0.059 0.015-0.134v-0.573z"></path>
<path fill="#fff" style="fill: var(--color1, #fff)" d="M44.058 8.309v1.242h-0.558v-0.104c-0.030 0.045-0.074 0.074-0.134 0.097s-0.119 0.030-0.193 0.030c-0.082 0-0.149-0.007-0.208-0.030-0.052-0.022-0.097-0.045-0.119-0.082-0.022-0.030-0.045-0.067-0.045-0.104s-0.007-0.104-0.007-0.216v-0.841h0.55v0.848c0 0.097 0 0.156 0.015 0.171 0.007 0.015 0.030 0.030 0.067 0.030s0.067-0.007 0.074-0.030c0-0.022 0.007-0.082 0.007-0.179v-0.841h0.55z"></path>
<path fill="#fff" style="fill: var(--color1, #fff)" d="M45.471 8.777h-0.521v-0.141c0-0.052 0-0.082-0.015-0.104-0.015-0.015-0.030-0.030-0.067-0.030s-0.052 0.007-0.067 0.022c-0.007 0.015-0.015 0.052-0.015 0.104v0.588c0 0.045 0.007 0.074 0.022 0.097s0.037 0.030 0.074 0.030c0.037 0 0.059-0.015 0.074-0.037s0.022-0.067 0.022-0.134v-0.149h0.491c0 0.097 0 0.171-0.015 0.223s-0.037 0.104-0.089 0.156c-0.052 0.052-0.119 0.089-0.201 0.119s-0.186 0.037-0.305 0.037c-0.156 0-0.275-0.015-0.372-0.052-0.089-0.037-0.156-0.089-0.193-0.156s-0.059-0.156-0.059-0.283v-0.357c0-0.104 0.015-0.186 0.045-0.238s0.097-0.104 0.193-0.141 0.223-0.059 0.364-0.059 0.268 0.022 0.364 0.059c0.104 0.045 0.171 0.097 0.201 0.156 0.030 0.067 0.052 0.156 0.052 0.275z"></path>
<path fill="#fff" style="fill: var(--color1, #fff)" d="M46.207 8.138v0.193h0.149v0.193h-0.149v0.669c0 0.082 0 0.126 0.015 0.134s0.059 0.015 0.156 0.015v0.201h-0.223c-0.126 0-0.216 0-0.268-0.007-0.052 0-0.104-0.022-0.141-0.052s-0.067-0.059-0.074-0.089c-0.007-0.030-0.015-0.112-0.015-0.238v-0.632h-0.119v-0.193h0.119v-0.193h0.55z"></path>
<path fill="#fff" style="fill: var(--color1, #fff)" d="M47.040 8.033v0.201h-0.565v-0.201h0.565zM47.040 8.309v1.242h-0.565v-1.242h0.565z"></path>
<path fill="#fff" style="fill: var(--color1, #fff)" d="M48.483 8.74v0.305c0 0.112-0.007 0.193-0.022 0.245s-0.052 0.104-0.104 0.149c-0.052 0.045-0.119 0.082-0.208 0.097-0.082 0.022-0.179 0.030-0.29 0.030-0.119 0-0.223-0.007-0.312-0.030-0.082-0.015-0.149-0.045-0.193-0.082s-0.082-0.082-0.097-0.134-0.030-0.134-0.030-0.238v-0.32c0-0.119 0.015-0.208 0.052-0.268 0.037-0.067 0.104-0.119 0.193-0.156 0.097-0.037 0.216-0.059 0.364-0.059 0.126 0 0.231 0.015 0.32 0.037s0.156 0.059 0.208 0.097c0.045 0.037 0.082 0.082 0.097 0.126s0.030 0.112 0.030 0.193zM47.933 8.643c0-0.067 0-0.104-0.015-0.119-0.007-0.015-0.030-0.022-0.067-0.022s-0.052 0.007-0.067 0.022c-0.007 0.015-0.015 0.059-0.015 0.119v0.565c0 0.059 0 0.097 0.015 0.112 0.007 0.015 0.030 0.030 0.067 0.030s0.052-0.007 0.067-0.022 0.015-0.052 0.015-0.104v-0.573z"></path>
<path fill="#fff" style="fill: var(--color1, #fff)" d="M49.22 8.309v0.112c0.030-0.045 0.082-0.082 0.134-0.104 0.059-0.022 0.126-0.037 0.201-0.037 0.097 0 0.171 0.015 0.231 0.045s0.097 0.067 0.119 0.119c0.015 0.045 0.022 0.126 0.022 0.231v0.87h-0.55v-0.863c0-0.082 0-0.134-0.015-0.156s-0.030-0.030-0.067-0.030c-0.037 0-0.059 0.007-0.074 0.030-0.007 0.022-0.015 0.082-0.015 0.171v0.841h-0.55v-1.242h0.558z"></path>
<path fill="#fff" style="fill: var(--color1, #fff)" d="M35.667 18.499v0.907h0.476v0.915h-0.476v3.094c0 0.379 0.022 0.595 0.059 0.64s0.201 0.067 0.491 0.067v0.93h-0.714c-0.402 0-0.684-0.015-0.855-0.052s-0.32-0.112-0.454-0.231-0.216-0.26-0.245-0.417-0.045-0.521-0.045-1.093v-2.938h-0.379v-0.915h0.379v-0.907h1.763z"></path>
<path fill="#fff" style="fill: var(--color1, #fff)" d="M38.285 19.273l-0.067 0.759c0.253-0.543 0.625-0.833 1.108-0.863v2.038c-0.32 0-0.558 0.045-0.714 0.134s-0.245 0.208-0.283 0.364-0.052 0.513-0.052 1.071v2.284h-1.763v-5.787h1.763z"></path>
<path fill="#fff" style="fill: var(--color1, #fff)" d="M43.708 22.271h-2.276v1.25c0 0.26 0.022 0.431 0.059 0.506s0.112 0.112 0.216 0.112c0.134 0 0.223-0.052 0.268-0.149s0.067-0.298 0.067-0.58v-0.766h1.666v0.424c0 0.357-0.022 0.632-0.067 0.826s-0.149 0.394-0.312 0.617-0.372 0.379-0.632 0.491-0.573 0.164-0.96 0.164-0.699-0.052-0.982-0.164-0.506-0.253-0.662-0.439-0.268-0.394-0.327-0.617-0.089-0.55-0.089-0.982v-1.689c0-0.506 0.067-0.907 0.208-1.198s0.357-0.513 0.669-0.669 0.669-0.231 1.071-0.231c0.491 0 0.9 0.097 1.22 0.283s0.543 0.439 0.677 0.744 0.193 0.744 0.193 1.302v0.766zM41.945 21.326v-0.424c0-0.298-0.015-0.491-0.045-0.58s-0.097-0.134-0.193-0.134c-0.119 0-0.201 0.037-0.223 0.112s-0.045 0.275-0.045 0.602v0.424h0.513z"></path>
<path fill="#fff" style="fill: var(--color1, #fff)" d="M46.044 18.001v1.674c0.149-0.171 0.305-0.298 0.483-0.379s0.372-0.126 0.58-0.126c0.238 0 0.454 0.037 0.625 0.112s0.312 0.179 0.402 0.32 0.149 0.268 0.171 0.402 0.030 0.409 0.030 0.833v2.603c0 0.424-0.030 0.744-0.082 0.945s-0.186 0.387-0.402 0.543-0.461 0.231-0.744 0.231c-0.208 0-0.402-0.045-0.58-0.134s-0.342-0.223-0.491-0.409l-0.112 0.439h-1.644v-7.059h1.763zM46.579 20.917c0-0.298-0.022-0.498-0.059-0.588s-0.112-0.134-0.223-0.134-0.179 0.037-0.208 0.119-0.045 0.283-0.045 0.602v2.492c0 0.312 0.015 0.513 0.052 0.595s0.112 0.134 0.216 0.134 0.186-0.045 0.216-0.134 0.052-0.305 0.052-0.647v-2.44z"></path>
<path fill="#fff" style="fill: var(--color1, #fff)" d="M50.499 21.512h-1.651v-0.387c0-0.446 0.052-0.796 0.156-1.034s0.312-0.454 0.617-0.64 0.714-0.283 1.212-0.283c0.595 0 1.041 0.104 1.346 0.312s0.483 0.469 0.543 0.774 0.089 0.937 0.089 1.897v2.901h-1.711v-0.513c-0.104 0.208-0.245 0.364-0.417 0.461s-0.372 0.156-0.61 0.156c-0.305 0-0.588-0.089-0.848-0.26s-0.387-0.55-0.387-1.138v-0.476c0-0.431 0.067-0.729 0.208-0.885s0.476-0.342 1.019-0.55c0.58-0.223 0.885-0.379 0.93-0.461s0.059-0.238 0.059-0.476c0-0.305-0.022-0.498-0.067-0.588s-0.119-0.134-0.223-0.134c-0.119 0-0.193 0.037-0.223 0.119s-0.045 0.275-0.045 0.602v0.602zM51.057 22.308c-0.283 0.208-0.446 0.379-0.491 0.521s-0.067 0.342-0.067 0.602c0 0.298 0.022 0.491 0.059 0.58s0.119 0.134 0.231 0.134 0.186-0.037 0.216-0.104 0.052-0.245 0.052-0.536v-1.19z"></path>
<path fill="none" stroke="#fff" style="stroke: var(--color1, #fff)" stroke-linejoin="miter" stroke-linecap="butt" stroke-miterlimit="10" stroke-width="0.7438" d="M33.517 7.453h19.295v2.968h-19.295v-2.968z"></path>
</symbol>
<symbol id="icon--3" viewBox="0 0 58 32">
<path fill="none" stroke="#fff" style="stroke: var(--color1, #fff)" stroke-linejoin="miter" stroke-linecap="butt" stroke-miterlimit="10" stroke-width="2.3273" d="M5.737 1.164h46.511c2.526 0 4.573 2.047 4.573 4.573v20.527c0 2.526-2.047 4.573-4.573 4.573h-46.511c-2.526 0-4.573-2.047-4.573-4.573v-20.527c0-2.526 2.047-4.573 4.573-4.573z"></path>
<path fill="#fff" style="fill: var(--color1, #fff)" d="M12.975 11.939h-2.781v-1.425c0-0.663-0.035-1.088-0.105-1.274-0.070-0.18-0.192-0.273-0.355-0.273-0.18 0-0.314 0.122-0.407 0.367s-0.14 0.617-0.14 1.117c0 0.64 0.052 1.129 0.157 1.455 0.099 0.326 0.384 0.716 0.844 1.175 1.332 1.321 2.17 2.409 2.519 3.258 0.343 0.849 0.518 2.217 0.518 4.102 0 1.373-0.093 2.385-0.285 3.031-0.192 0.652-0.564 1.193-1.111 1.635-0.553 0.442-1.193 0.657-1.92 0.657-0.803 0-1.484-0.256-2.054-0.762-0.564-0.506-0.937-1.152-1.111-1.937s-0.262-1.897-0.262-3.34v-1.263h2.781v2.345c0 0.721 0.041 1.187 0.116 1.391s0.215 0.308 0.419 0.308 0.349-0.128 0.442-0.39c0.099-0.262 0.145-0.652 0.145-1.164 0-1.135-0.093-1.873-0.279-2.223-0.192-0.349-0.657-0.931-1.402-1.745-0.745-0.826-1.239-1.425-1.478-1.798-0.244-0.372-0.442-0.89-0.599-1.548s-0.239-1.501-0.239-2.519c0-1.472 0.111-2.554 0.337-3.235s0.588-1.216 1.094-1.6 1.111-0.576 1.821-0.576c0.78 0 1.443 0.209 1.99 0.628s0.908 0.948 1.088 1.588c0.18 0.64 0.268 1.722 0.268 3.252v0.762z"></path>
<path fill="#fff" style="fill: var(--color1, #fff)" d="M21.044 6.109v19.252h-2.996v-8.087h-0.896v8.087h-2.996v-19.252h2.996v6.889h0.896v-6.889h2.996z"></path>
<path fill="#fff" style="fill: var(--color1, #fff)" d="M29.091 17.385c0 1.932-0.029 3.305-0.081 4.108s-0.227 1.542-0.512 2.205-0.675 1.175-1.164 1.536c-0.489 0.355-1.059 0.535-1.705 0.535-0.617 0-1.169-0.169-1.658-0.506s-0.884-0.844-1.187-1.519c-0.297-0.675-0.477-1.408-0.535-2.199s-0.087-2.182-0.087-4.16v-3.293c0-1.937 0.029-3.305 0.081-4.108s0.227-1.542 0.512-2.205 0.675-1.175 1.164-1.536c0.489-0.355 1.059-0.535 1.705-0.535 0.617 0 1.169 0.169 1.664 0.506s0.884 0.844 1.181 1.519c0.297 0.675 0.477 1.408 0.535 2.199s0.087 2.182 0.087 4.16v3.293zM26.095 11.060c0-0.896-0.029-1.466-0.087-1.716s-0.18-0.372-0.367-0.372c-0.157 0-0.273 0.099-0.361 0.303-0.081 0.204-0.122 0.797-0.122 1.792v8.989c0 1.117 0.029 1.809 0.081 2.071s0.18 0.39 0.378 0.39 0.332-0.151 0.39-0.454c0.058-0.303 0.087-1.018 0.087-2.153v-8.849z"></path>
<path fill="#fff" style="fill: var(--color1, #fff)" d="M36.916 8.134l-0.012 0.111c0.047-0.047 0.099-0.081 0.157-0.099s0.122-0.035 0.186-0.035c0.081 0 0.157 0.017 0.215 0.047s0.099 0.070 0.116 0.111c0.017 0.041 0.023 0.116 0.023 0.215v0.535c0 0.116-0.012 0.198-0.029 0.25s-0.058 0.087-0.116 0.116-0.128 0.047-0.215 0.047c-0.064 0-0.128-0.012-0.186-0.035s-0.111-0.058-0.157-0.099v0.291h-0.535v-1.455h0.547zM37.068 8.506c0-0.081 0-0.128-0.012-0.145-0.006-0.017-0.029-0.023-0.064-0.023s-0.058 0.012-0.070 0.029c-0.012 0.017-0.017 0.064-0.017 0.14v0.529c0 0.076 0 0.122 0.017 0.145s0.035 0.029 0.070 0.029 0.058-0.012 0.064-0.029c0.006-0.017 0.012-0.058 0.012-0.128v-0.547z"></path>
<path fill="#fff" style="fill: var(--color1, #fff)" d="M38.319 8.134l-0.023 0.169c0.076-0.122 0.192-0.186 0.337-0.192v0.448c-0.099 0-0.169 0.012-0.215 0.029s-0.076 0.047-0.087 0.081-0.017 0.111-0.017 0.239v0.5h-0.535v-1.274h0.535z"></path>
<path fill="#fff" style="fill: var(--color1, #fff)" d="M39.965 8.582v0.314c0 0.116-0.006 0.198-0.023 0.25s-0.052 0.105-0.105 0.151c-0.052 0.047-0.116 0.081-0.204 0.105-0.081 0.023-0.175 0.035-0.279 0.035-0.116 0-0.221-0.012-0.303-0.029s-0.145-0.047-0.192-0.087-0.076-0.081-0.099-0.14c-0.017-0.052-0.029-0.134-0.029-0.244v-0.326c0-0.116 0.017-0.209 0.052-0.279 0.035-0.064 0.099-0.122 0.192-0.163s0.209-0.058 0.355-0.058c0.122 0 0.221 0.012 0.308 0.041 0.087 0.023 0.151 0.058 0.198 0.099s0.081 0.087 0.099 0.128c0.017 0.047 0.023 0.111 0.023 0.204zM39.43 8.489c0-0.064 0-0.105-0.017-0.122-0.012-0.017-0.029-0.023-0.064-0.023s-0.052 0.012-0.064 0.023c-0.012 0.017-0.017 0.058-0.017 0.122v0.576c0 0.058 0 0.099 0.017 0.116 0.012 0.017 0.029 0.029 0.064 0.029s0.052-0.012 0.064-0.023c0.012-0.017 0.017-0.052 0.017-0.111v-0.588z"></path>
<path fill="#fff" style="fill: var(--color1, #fff)" d="M41.361 7.855v1.553h-0.535v-0.093c-0.052 0.041-0.105 0.064-0.163 0.087s-0.116 0.029-0.18 0.029c-0.081 0-0.157-0.017-0.215-0.047s-0.099-0.070-0.116-0.111c-0.017-0.041-0.023-0.111-0.023-0.204v-0.593c0-0.099 0.006-0.169 0.023-0.209s0.058-0.076 0.122-0.111c0.064-0.029 0.134-0.047 0.221-0.047 0.064 0 0.128 0.006 0.18 0.023 0.058 0.017 0.105 0.041 0.151 0.076v-0.361h0.535zM40.826 8.454c0-0.047 0-0.076-0.017-0.093-0.012-0.017-0.035-0.023-0.064-0.023s-0.052 0.006-0.064 0.023c-0.012 0.017-0.017 0.047-0.017 0.099v0.623c0 0.052 0 0.087 0.017 0.105s0.029 0.023 0.058 0.023c0.035 0 0.058-0.012 0.070-0.029s0.017-0.064 0.017-0.134v-0.588z"></path>
<path fill="#fff" style="fill: var(--color1, #fff)" d="M42.787 8.134v1.274h-0.547l0.012-0.105c-0.035 0.041-0.081 0.076-0.14 0.099s-0.116 0.029-0.186 0.029c-0.081 0-0.145-0.012-0.204-0.029-0.052-0.023-0.093-0.047-0.116-0.081s-0.041-0.070-0.047-0.105c-0.006-0.035-0.012-0.111-0.012-0.221v-0.855h0.535v0.867c0 0.099 0 0.157 0.012 0.175 0.006 0.017 0.029 0.029 0.070 0.029s0.064-0.012 0.070-0.029c0.006-0.017 0.012-0.081 0.012-0.186v-0.855h0.535z"></path>
<path fill="#fff" style="fill: var(--color1, #fff)" d="M44.16 8.617h-0.506v-0.145c0-0.052 0-0.087-0.017-0.105-0.012-0.017-0.035-0.029-0.064-0.029s-0.052 0.006-0.064 0.023c-0.012 0.017-0.017 0.052-0.017 0.111v0.599c0 0.047 0.006 0.081 0.023 0.105s0.041 0.035 0.070 0.035c0.035 0 0.058-0.012 0.076-0.035s0.017-0.070 0.017-0.134v-0.151h0.477c0 0.099-0.006 0.18-0.017 0.227s-0.041 0.105-0.087 0.157c-0.052 0.052-0.116 0.093-0.198 0.122s-0.18 0.041-0.297 0.041c-0.151 0-0.273-0.017-0.361-0.058-0.087-0.035-0.151-0.087-0.186-0.157s-0.058-0.163-0.058-0.285v-0.361c0-0.111 0.017-0.192 0.047-0.244s0.093-0.105 0.192-0.145 0.215-0.064 0.361-0.064 0.262 0.023 0.361 0.064c0.099 0.041 0.163 0.099 0.198 0.163s0.047 0.157 0.047 0.279z"></path>
<path fill="#fff" style="fill: var(--color1, #fff)" d="M44.887 7.965v0.198h0.145v0.204h-0.145v0.681c0 0.081 0 0.128 0.017 0.14s0.064 0.017 0.151 0.017v0.204h-0.215c-0.122 0-0.209 0-0.262-0.012-0.052-0.006-0.099-0.023-0.14-0.052s-0.064-0.058-0.076-0.093c-0.012-0.035-0.017-0.116-0.017-0.239v-0.646h-0.116v-0.204h0.116v-0.198h0.535z"></path>
<path fill="#fff" style="fill: var(--color1, #fff)" d="M45.702 7.855v0.204h-0.553v-0.204h0.553zM45.702 8.134v1.274h-0.553v-1.274h0.553z"></path>
<path fill="#fff" style="fill: var(--color1, #fff)" d="M47.104 8.582v0.314c0 0.116-0.006 0.198-0.023 0.25s-0.052 0.105-0.105 0.151c-0.052 0.047-0.122 0.081-0.204 0.105s-0.175 0.035-0.279 0.035c-0.116 0-0.221-0.012-0.303-0.029s-0.145-0.047-0.192-0.087c-0.047-0.041-0.076-0.081-0.099-0.14s-0.029-0.134-0.029-0.244v-0.326c0-0.116 0.017-0.209 0.052-0.279 0.035-0.064 0.099-0.122 0.192-0.163s0.209-0.058 0.355-0.058c0.122 0 0.221 0.012 0.308 0.041 0.087 0.023 0.151 0.058 0.198 0.099s0.081 0.087 0.093 0.128c0.017 0.047 0.023 0.111 0.023 0.204zM46.569 8.489c0-0.064 0-0.105-0.012-0.122s-0.029-0.023-0.064-0.023-0.052 0.012-0.064 0.023c-0.012 0.017-0.017 0.058-0.017 0.122v0.576c0 0.058 0 0.099 0.017 0.116 0.012 0.017 0.029 0.029 0.064 0.029s0.052-0.012 0.064-0.023 0.017-0.052 0.017-0.111v-0.588z"></path>
<path fill="#fff" style="fill: var(--color1, #fff)" d="M47.831 8.134l-0.012 0.116c0.041-0.047 0.087-0.081 0.145-0.105s0.122-0.035 0.192-0.035c0.093 0 0.169 0.017 0.227 0.047s0.093 0.070 0.111 0.116c0.017 0.047 0.023 0.128 0.023 0.239v0.89h-0.535v-0.879c0-0.087 0-0.14-0.012-0.157s-0.029-0.029-0.064-0.029c-0.041 0-0.064 0.012-0.070 0.035-0.012 0.023-0.017 0.081-0.017 0.175v0.861h-0.535v-1.274h0.547z"></path>
<path fill="#fff" style="fill: var(--color1, #fff)" d="M34.577 18.554v0.931h0.465v0.937h-0.465v3.165c0 0.39 0.017 0.605 0.058 0.652s0.198 0.064 0.477 0.064v0.954h-0.692c-0.39 0-0.669-0.017-0.838-0.052s-0.314-0.111-0.442-0.239-0.209-0.262-0.239-0.425-0.047-0.535-0.047-1.123v-3.002h-0.372v-0.937h0.372v-0.931h1.728z"></path>
<path fill="#fff" style="fill: var(--color1, #fff)" d="M37.143 19.345l-0.070 0.78c0.25-0.559 0.611-0.849 1.088-0.884v2.083c-0.314 0-0.547 0.047-0.692 0.134s-0.239 0.215-0.273 0.372-0.052 0.524-0.052 1.1v2.333h-1.722v-5.911h1.722z"></path>
<path fill="#fff" style="fill: var(--color1, #fff)" d="M42.444 22.406h-2.228v1.28c0 0.268 0.017 0.442 0.058 0.518s0.111 0.116 0.215 0.116c0.128 0 0.215-0.052 0.262-0.151s0.064-0.303 0.064-0.593v-0.78h1.629v0.436c0 0.367-0.023 0.646-0.064 0.844s-0.145 0.407-0.308 0.628-0.367 0.39-0.617 0.5-0.559 0.169-0.937 0.169-0.687-0.052-0.966-0.163-0.495-0.262-0.652-0.454-0.262-0.401-0.32-0.634-0.087-0.564-0.087-1.007v-1.722c0-0.518 0.064-0.925 0.198-1.222s0.355-0.529 0.657-0.687 0.652-0.239 1.047-0.239c0.483 0 0.879 0.093 1.193 0.285s0.535 0.448 0.663 0.762 0.192 0.762 0.192 1.332v0.785zM40.716 21.446v-0.431c0-0.308-0.017-0.506-0.047-0.593s-0.093-0.134-0.192-0.134c-0.122 0-0.192 0.041-0.221 0.116s-0.041 0.279-0.041 0.611v0.431h0.5z"></path>
<path fill="#fff" style="fill: var(--color1, #fff)" d="M44.724 18.042v1.711c0.14-0.175 0.303-0.303 0.477-0.384 0.175-0.087 0.367-0.128 0.57-0.128 0.239 0 0.442 0.041 0.611 0.116s0.303 0.186 0.396 0.326 0.145 0.273 0.163 0.407 0.029 0.419 0.029 0.855v2.665c0 0.436-0.029 0.756-0.081 0.972s-0.186 0.396-0.39 0.553-0.448 0.233-0.727 0.233c-0.204 0-0.39-0.047-0.564-0.14s-0.332-0.233-0.477-0.413l-0.111 0.448h-1.612v-7.215h1.722zM45.248 21.021c0-0.308-0.017-0.506-0.058-0.599s-0.111-0.14-0.215-0.14-0.175 0.041-0.204 0.122-0.047 0.285-0.047 0.617v2.548c0 0.32 0.017 0.524 0.052 0.611s0.105 0.134 0.209 0.134 0.18-0.047 0.209-0.14 0.047-0.314 0.047-0.663v-2.49z"></path>
<path fill="#fff" style="fill: var(--color1, #fff)" d="M49.076 21.638h-1.617v-0.396c0-0.46 0.052-0.809 0.151-1.059s0.303-0.465 0.605-0.657 0.698-0.285 1.187-0.285c0.582 0 1.024 0.111 1.315 0.326s0.471 0.477 0.535 0.791 0.087 0.96 0.087 1.937v2.967h-1.676v-0.524c-0.105 0.209-0.239 0.372-0.407 0.477s-0.367 0.157-0.593 0.157c-0.303 0-0.576-0.087-0.826-0.268s-0.378-0.564-0.378-1.158v-0.483c0-0.442 0.064-0.745 0.198-0.902s0.465-0.349 0.995-0.559c0.564-0.233 0.867-0.39 0.908-0.465s0.058-0.244 0.058-0.489c0-0.308-0.023-0.512-0.064-0.605s-0.116-0.14-0.221-0.14c-0.116 0-0.186 0.041-0.215 0.116s-0.041 0.285-0.041 0.611v0.617zM49.623 22.447c-0.273 0.209-0.436 0.39-0.477 0.529s-0.064 0.349-0.064 0.617c0 0.308 0.017 0.506 0.058 0.593s0.116 0.134 0.227 0.134 0.18-0.035 0.209-0.105 0.047-0.256 0.047-0.553v-1.216z"></path>
<path fill="none" stroke="#fff" style="stroke: var(--color1, #fff)" stroke-linejoin="miter" stroke-linecap="butt" stroke-miterlimit="10" stroke-width="0.5818" d="M32.483 7.261h18.863v3.031h-18.863v-3.031z"></path>
</symbol>
<symbol id="icon--6" viewBox="0 0 62 32">
<path fill="none" stroke="#fff" style="stroke: var(--color1, #fff)" stroke-linejoin="miter" stroke-linecap="butt" stroke-miterlimit="10" stroke-width="1.2648" d="M3.118 0.632h55.611c1.373 0 2.485 1.113 2.485 2.485v25.764c0 1.373-1.113 2.485-2.485 2.485h-55.611c-1.373 0-2.485-1.113-2.485-2.485v-25.764c0-1.373 1.113-2.485 2.485-2.485z"></path>
<path fill="#fff" style="fill: var(--color1, #fff)" d="M13.486 11.794h-3.026v-1.48c0-0.689-0.038-1.129-0.117-1.319s-0.206-0.285-0.386-0.285c-0.196 0-0.345 0.126-0.446 0.383s-0.152 0.642-0.152 1.157c0 0.667 0.057 1.167 0.171 1.505 0.107 0.335 0.414 0.743 0.92 1.217 1.451 1.369 2.365 2.495 2.742 3.374s0.566 2.296 0.566 4.25c0 1.423-0.104 2.47-0.313 3.14-0.209 0.674-0.613 1.24-1.211 1.695s-1.296 0.683-2.090 0.683c-0.873 0-1.616-0.262-2.232-0.787s-1.021-1.195-1.211-2.008-0.288-1.967-0.288-3.462v-1.306h3.026v2.425c0 0.746 0.041 1.227 0.126 1.442 0.085 0.212 0.237 0.319 0.452 0.319s0.379-0.136 0.484-0.405c0.104-0.272 0.158-0.674 0.158-1.208 0-1.173-0.101-1.942-0.3-2.305-0.206-0.36-0.715-0.964-1.524-1.812-0.809-0.854-1.347-1.474-1.609-1.859s-0.481-0.92-0.655-1.6c-0.174-0.683-0.259-1.553-0.259-2.612 0-1.527 0.123-2.643 0.367-3.352 0.243-0.705 0.642-1.258 1.189-1.657s1.208-0.598 1.983-0.598c0.847 0 1.568 0.218 2.163 0.655s0.99 0.983 1.186 1.644c0.193 0.661 0.291 1.783 0.291 3.371v0.787z"></path>
<path fill="#fff" style="fill: var(--color1, #fff)" d="M22.274 5.758v19.946h-3.26v-8.376h-0.977v8.376h-3.26v-19.946h3.26v7.134h0.977v-7.134h3.26z"></path>
<path fill="#fff" style="fill: var(--color1, #fff)" d="M31.029 17.436c0 2.005-0.032 3.421-0.089 4.256-0.060 0.835-0.247 1.597-0.557 2.286s-0.734 1.221-1.265 1.59c-0.531 0.37-1.151 0.553-1.859 0.553-0.67 0-1.274-0.174-1.809-0.525-0.534-0.348-0.964-0.873-1.29-1.572s-0.519-1.458-0.582-2.28c-0.063-0.822-0.092-2.258-0.092-4.313v-3.412c0-2.005 0.028-3.421 0.089-4.256s0.243-1.597 0.557-2.286 0.734-1.221 1.265-1.591c0.531-0.37 1.151-0.553 1.859-0.553 0.67 0 1.274 0.174 1.809 0.525s0.964 0.873 1.29 1.572c0.326 0.699 0.519 1.458 0.582 2.28s0.092 2.258 0.092 4.313v3.412zM27.769 10.881c0-0.926-0.032-1.521-0.098-1.78-0.063-0.259-0.196-0.389-0.398-0.389-0.171 0-0.3 0.104-0.392 0.313s-0.136 0.828-0.136 1.853v9.312c0 1.157 0.028 1.872 0.089 2.144s0.196 0.405 0.414 0.405 0.364-0.155 0.427-0.468c0.063-0.313 0.092-1.053 0.092-2.229v-9.167z"></path>
<path fill="#fff" style="fill: var(--color1, #fff)" d="M39.548 7.855l-0.010 0.117c0.054-0.047 0.111-0.082 0.174-0.104s0.13-0.035 0.206-0.035c0.092 0 0.168 0.016 0.234 0.051 0.066 0.032 0.108 0.073 0.123 0.114 0.016 0.044 0.025 0.117 0.025 0.225v0.553c0 0.12-0.010 0.206-0.032 0.256s-0.063 0.092-0.126 0.12-0.142 0.044-0.231 0.044c-0.073 0-0.139-0.013-0.202-0.035s-0.117-0.057-0.171-0.104v0.304h-0.585v-1.505h0.594zM39.715 8.237c0-0.082-0.003-0.13-0.013-0.149s-0.035-0.025-0.073-0.025-0.063 0.009-0.073 0.028c-0.013 0.019-0.016 0.066-0.016 0.142v0.547c0 0.079 0.006 0.13 0.019 0.149s0.035 0.028 0.076 0.028 0.060-0.009 0.070-0.028c0.010-0.019 0.013-0.063 0.013-0.133v-0.566z"></path>
<path fill="#fff" style="fill: var(--color1, #fff)" d="M41.072 7.855l-0.022 0.174c0.085-0.123 0.209-0.19 0.37-0.196v0.465c-0.108 0-0.187 0.009-0.237 0.028s-0.082 0.047-0.092 0.082-0.016 0.117-0.016 0.243v0.522h-0.585v-1.319h0.585z"></path>
<path fill="#fff" style="fill: var(--color1, #fff)" d="M42.868 8.316v0.323c0 0.117-0.010 0.206-0.025 0.259-0.016 0.057-0.054 0.107-0.111 0.155s-0.13 0.085-0.218 0.107c-0.089 0.022-0.19 0.035-0.307 0.035-0.13 0-0.237-0.009-0.329-0.028s-0.158-0.051-0.209-0.089-0.085-0.085-0.108-0.142c-0.022-0.057-0.032-0.139-0.032-0.253v-0.338c0-0.123 0.019-0.218 0.057-0.288s0.108-0.123 0.209-0.168c0.101-0.041 0.228-0.063 0.383-0.063 0.133 0 0.243 0.013 0.338 0.041s0.168 0.060 0.218 0.104 0.085 0.089 0.104 0.133c0.019 0.047 0.028 0.114 0.028 0.209zM42.283 8.218c0-0.066-0.006-0.111-0.016-0.126s-0.035-0.025-0.066-0.025-0.057 0.009-0.070 0.025c-0.013 0.019-0.019 0.060-0.019 0.126v0.594c0 0.063 0.006 0.101 0.019 0.12s0.035 0.028 0.070 0.028 0.057-0.009 0.070-0.025c0.013-0.016 0.016-0.054 0.016-0.111v-0.607z"></path>
<path fill="#fff" style="fill: var(--color1, #fff)" d="M44.389 7.564v1.606h-0.585v-0.095c-0.057 0.038-0.114 0.070-0.177 0.089s-0.126 0.028-0.193 0.028c-0.092 0-0.168-0.016-0.234-0.051s-0.108-0.070-0.13-0.114c-0.019-0.044-0.028-0.114-0.028-0.209v-0.617c0-0.101 0.010-0.174 0.028-0.215 0.019-0.044 0.063-0.079 0.13-0.114 0.066-0.032 0.149-0.047 0.24-0.047 0.073 0 0.139 0.010 0.199 0.028s0.114 0.044 0.164 0.079v-0.373h0.585zM43.804 8.187c0-0.047-0.006-0.082-0.019-0.098s-0.035-0.025-0.070-0.025-0.057 0.006-0.070 0.022c-0.013 0.016-0.019 0.047-0.019 0.101v0.645c0 0.054 0.006 0.089 0.016 0.107s0.035 0.025 0.066 0.025c0.038 0 0.063-0.009 0.076-0.028s0.019-0.066 0.019-0.139v-0.61z"></path>
<path fill="#fff" style="fill: var(--color1, #fff)" d="M45.935 7.855v1.319h-0.594l0.010-0.111c-0.041 0.044-0.089 0.079-0.149 0.101s-0.126 0.032-0.206 0.032c-0.089 0-0.161-0.009-0.218-0.032s-0.101-0.051-0.126-0.085c-0.028-0.035-0.044-0.073-0.051-0.111s-0.010-0.114-0.010-0.228v-0.889h0.585v0.898c0 0.101 0.003 0.164 0.013 0.183s0.035 0.028 0.076 0.028c0.044 0 0.070-0.009 0.076-0.028s0.013-0.085 0.013-0.193v-0.885h0.585z"></path>
<path fill="#fff" style="fill: var(--color1, #fff)" d="M47.434 8.351h-0.55v-0.152c0-0.054-0.006-0.089-0.019-0.107s-0.035-0.028-0.070-0.028-0.057 0.009-0.070 0.025c-0.013 0.016-0.019 0.054-0.019 0.111v0.623c0 0.047 0.010 0.082 0.025 0.107 0.016 0.022 0.041 0.035 0.076 0.035 0.038 0 0.066-0.013 0.079-0.038s0.022-0.070 0.022-0.139v-0.158h0.522c0 0.104-0.006 0.183-0.016 0.237s-0.041 0.107-0.098 0.161c-0.054 0.057-0.126 0.098-0.212 0.126-0.089 0.028-0.196 0.041-0.326 0.041-0.164 0-0.294-0.019-0.392-0.057-0.095-0.038-0.164-0.092-0.206-0.161s-0.060-0.171-0.060-0.297v-0.373c0-0.111 0.016-0.196 0.051-0.253s0.104-0.107 0.209-0.152 0.237-0.066 0.389-0.066 0.281 0.022 0.389 0.066c0.108 0.044 0.18 0.101 0.215 0.168s0.054 0.164 0.054 0.288z"></path>
<path fill="#fff" style="fill: var(--color1, #fff)" d="M48.221 7.677v0.209h0.158v0.209h-0.158v0.705c0 0.085 0.006 0.136 0.019 0.145s0.066 0.016 0.161 0.016v0.212h-0.234c-0.133 0-0.228-0.003-0.285-0.013-0.057-0.006-0.108-0.025-0.152-0.054s-0.070-0.060-0.079-0.095c-0.010-0.035-0.016-0.117-0.016-0.25v-0.67h-0.126v-0.209h0.126v-0.209h0.585z"></path>
<path fill="#fff" style="fill: var(--color1, #fff)" d="M49.11 7.564v0.209h-0.601v-0.209h0.601zM49.11 7.855v1.319h-0.601v-1.319h0.601z"></path>
<path fill="#fff" style="fill: var(--color1, #fff)" d="M50.64 8.316v0.323c0 0.117-0.010 0.206-0.025 0.259-0.019 0.057-0.054 0.107-0.111 0.155s-0.13 0.085-0.218 0.107c-0.089 0.022-0.193 0.035-0.307 0.035-0.13 0-0.24-0.009-0.329-0.028s-0.158-0.051-0.209-0.089c-0.051-0.038-0.085-0.085-0.104-0.142s-0.032-0.139-0.032-0.253v-0.338c0-0.123 0.019-0.218 0.057-0.288s0.108-0.123 0.209-0.168c0.101-0.041 0.228-0.063 0.383-0.063 0.13 0 0.243 0.013 0.338 0.041s0.168 0.060 0.218 0.104c0.051 0.044 0.085 0.089 0.104 0.133 0.019 0.047 0.028 0.114 0.028 0.209zM50.055 8.218c0-0.066-0.003-0.111-0.016-0.126-0.010-0.016-0.035-0.025-0.070-0.025s-0.057 0.009-0.070 0.025c-0.013 0.019-0.016 0.060-0.016 0.126v0.594c0 0.063 0.006 0.101 0.016 0.12 0.013 0.019 0.035 0.028 0.070 0.028s0.057-0.009 0.070-0.025 0.016-0.054 0.016-0.111v-0.607z"></path>
<path fill="#fff" style="fill: var(--color1, #fff)" d="M51.425 7.855l-0.010 0.12c0.041-0.047 0.095-0.085 0.155-0.111s0.133-0.035 0.212-0.035c0.101 0 0.183 0.016 0.247 0.047s0.104 0.073 0.123 0.123c0.019 0.051 0.028 0.133 0.028 0.247v0.923h-0.585v-0.914c0-0.089-0.003-0.145-0.013-0.164s-0.032-0.028-0.073-0.028c-0.041 0-0.066 0.013-0.079 0.035-0.010 0.022-0.016 0.085-0.016 0.183v0.892h-0.585v-1.319h0.594z"></path>
<path fill="#fff" style="fill: var(--color1, #fff)" d="M36.999 18.65v0.964h0.506v0.968h-0.506v3.276c0 0.402 0.022 0.626 0.063 0.674s0.215 0.070 0.522 0.070v0.987h-0.756c-0.427 0-0.73-0.019-0.914-0.054s-0.345-0.117-0.484-0.243-0.224-0.275-0.259-0.44-0.051-0.55-0.051-1.16v-3.111h-0.405v-0.968h0.405v-0.964h1.878z"></path>
<path fill="#fff" style="fill: var(--color1, #fff)" d="M39.791 19.466l-0.073 0.806c0.272-0.576 0.667-0.882 1.183-0.917v2.157c-0.345 0-0.594 0.047-0.756 0.139s-0.259 0.221-0.297 0.386-0.057 0.544-0.057 1.138v2.419h-1.875v-6.125h1.875z"></path>
<path fill="#fff" style="fill: var(--color1, #fff)" d="M45.562 22.637h-2.425v1.325c0 0.278 0.019 0.455 0.060 0.534s0.117 0.12 0.231 0.12c0.142 0 0.237-0.054 0.285-0.158s0.073-0.313 0.073-0.617v-0.806h1.777v0.452c0 0.379-0.025 0.67-0.073 0.873s-0.161 0.421-0.335 0.651-0.398 0.405-0.67 0.519-0.61 0.174-1.018 0.174-0.746-0.057-1.047-0.171-0.538-0.269-0.708-0.468-0.285-0.417-0.351-0.655-0.098-0.585-0.098-1.040v-1.787c0-0.534 0.073-0.958 0.218-1.268s0.383-0.547 0.715-0.711 0.711-0.247 1.142-0.247c0.525 0 0.958 0.098 1.3 0.297s0.582 0.462 0.718 0.791 0.206 0.787 0.206 1.382v0.813zM43.684 21.641v-0.449c0-0.316-0.016-0.522-0.051-0.613s-0.104-0.139-0.209-0.139c-0.13 0-0.209 0.038-0.24 0.117s-0.047 0.291-0.047 0.636v0.449h0.547z"></path>
<path fill="#fff" style="fill: var(--color1, #fff)" d="M48.047 18.119v1.768c0.155-0.18 0.326-0.313 0.519-0.398 0.19-0.089 0.395-0.133 0.62-0.133 0.256 0 0.481 0.041 0.667 0.12s0.332 0.193 0.43 0.338 0.158 0.285 0.177 0.424 0.032 0.433 0.032 0.885v2.76c0 0.449-0.032 0.784-0.092 1.002s-0.202 0.411-0.424 0.572-0.487 0.243-0.794 0.243c-0.218 0-0.424-0.047-0.613-0.142s-0.364-0.24-0.522-0.43l-0.12 0.462h-1.752v-7.472h1.875zM48.617 21.205c0-0.316-0.019-0.525-0.060-0.62s-0.12-0.145-0.237-0.145-0.19 0.041-0.221 0.126-0.051 0.297-0.051 0.639v2.64c0 0.329 0.019 0.541 0.057 0.632s0.114 0.139 0.231 0.139 0.193-0.047 0.231-0.142 0.054-0.326 0.054-0.686v-2.58z"></path>
<path fill="#fff" style="fill: var(--color1, #fff)" d="M52.784 21.837h-1.758v-0.411c0-0.474 0.054-0.838 0.164-1.097s0.329-0.484 0.661-0.68 0.762-0.294 1.29-0.294c0.632 0 1.113 0.111 1.432 0.335s0.515 0.496 0.579 0.822 0.098 0.993 0.098 2.005v3.074h-1.821v-0.544c-0.114 0.218-0.262 0.383-0.443 0.493s-0.395 0.164-0.648 0.164c-0.329 0-0.629-0.092-0.901-0.275s-0.411-0.585-0.411-1.202v-0.503c0-0.459 0.073-0.772 0.218-0.936s0.506-0.36 1.081-0.582c0.617-0.24 0.945-0.402 0.987-0.484s0.066-0.253 0.066-0.509c0-0.319-0.025-0.528-0.073-0.626s-0.126-0.145-0.24-0.145c-0.126 0-0.206 0.041-0.237 0.123s-0.047 0.294-0.047 0.636v0.642zM53.379 22.678c-0.3 0.218-0.474 0.402-0.522 0.55s-0.073 0.36-0.073 0.636c0 0.316 0.022 0.522 0.063 0.613s0.123 0.139 0.247 0.139 0.193-0.035 0.231-0.108 0.054-0.262 0.054-0.569v-1.259z"></path>
</symbol>
<symbol id="icon-viber" viewBox="0 0 32 32">
<path fill="#665cac" style="fill: var(--color1, #665cac)" d="M15.197 0.003c-2.567 0.035-8.089 0.456-11.179 3.287-2.293 2.28-3.095 5.641-3.188 9.804-0.080 4.147-0.173 11.933 7.333 14.055v3.227c0 0-0.051 1.293 0.803 1.56 1.053 0.333 1.653-0.665 2.653-1.732l1.867-2.107c5.133 0.427 9.067-0.559 9.52-0.705 1.040-0.333 6.908-1.081 7.868-8.869 0.987-8.041-0.48-13.108-3.12-15.401l-0.013-0.003c-0.8-0.733-4-3.067-11.16-3.093 0 0-0.528-0.033-1.384-0.021zM15.287 2.265c0.727-0.004 1.173 0.027 1.173 0.027 6.053 0.013 8.948 1.84 9.628 2.453 2.227 1.905 3.371 6.475 2.533 13.189-0.8 6.507-5.56 6.92-6.44 7.2-0.373 0.12-3.84 0.973-8.203 0.693 0 0-3.252 3.921-4.265 4.935-0.16 0.173-0.347 0.227-0.467 0.2-0.173-0.040-0.227-0.253-0.213-0.547l0.027-5.359c-6.361-1.76-5.988-8.403-5.921-11.869 0.080-3.467 0.733-6.309 2.667-8.229 2.609-2.36 7.3-2.68 9.481-2.693zM15.767 5.732c-0 0-0.001 0-0.001 0-0.22 0-0.399 0.178-0.399 0.399 0 0 0 0 0 0v0c0 0.221 0.179 0.4 0.4 0.4v0c0.043-0.001 0.093-0.001 0.143-0.001 2.034 0 3.88 0.809 5.232 2.123l-0.002-0.002c1.453 1.413 2.161 3.307 2.188 5.787 0 0.221 0.179 0.4 0.4 0.4v0-0.012c0.221 0 0.4-0.179 0.4-0.4v0c0.005-0.109 0.008-0.236 0.008-0.364 0-2.326-0.923-4.436-2.423-5.985l0.002 0.002c-1.587-1.547-3.589-2.347-5.948-2.347zM10.495 6.652c-0.054-0.008-0.116-0.013-0.18-0.013-0.236 0-0.457 0.064-0.646 0.176l0.006-0.003h-0.016c-0.547 0.32-1.051 0.72-1.531 1.253-0.36 0.427-0.561 0.852-0.615 1.265-0.009 0.064-0.014 0.137-0.014 0.212 0 0.182 0.029 0.357 0.084 0.521l-0.003-0.012 0.027 0.013c0.458 1.331 0.998 2.476 1.646 3.549l-0.046-0.082c0.895 1.608 1.922 2.996 3.101 4.237l-0.008-0.009 0.040 0.053 0.053 0.040 0.080 0.080c1.236 1.174 2.628 2.205 4.136 3.053l0.104 0.054c1.76 0.96 2.829 1.413 3.469 1.6v0.013c0.187 0.053 0.357 0.080 0.531 0.080 0.57-0.043 1.079-0.274 1.471-0.631l-0.002 0.002c0.52-0.467 0.933-0.984 1.24-1.531v-0.013c0.307-0.573 0.2-1.121-0.24-1.495-0.845-0.742-1.782-1.421-2.781-2.007l-0.085-0.046c-0.68-0.373-1.373-0.147-1.653 0.227l-0.6 0.759c-0.307 0.373-0.867 0.32-0.867 0.32l-0.016 0.013c-4.16-1.067-5.267-5.279-5.267-5.279s-0.053-0.573 0.333-0.867l0.747-0.6c0.36-0.293 0.613-0.987 0.227-1.667-0.631-1.084-1.31-2.022-2.071-2.887l0.017 0.020c-0.166-0.204-0.399-0.349-0.665-0.399l-0.007-0.001zM16.459 7.839c-0.22 0.001-0.399 0.18-0.399 0.4s0.179 0.4 0.4 0.4c0 0 0.001 0 0.001 0h-0c1.388 0.025 2.636 0.607 3.532 1.532l0.001 0.001c0.75 0.825 1.209 1.926 1.209 3.134 0 0.103-0.003 0.205-0.010 0.306l0.001-0.014c0.001 0.22 0.18 0.399 0.4 0.399 0 0 0 0 0 0v0l0.013 0.016c0 0 0 0 0 0 0.221 0 0.4-0.179 0.4-0.4 0-0 0-0.001 0-0.001v0c0.040-1.587-0.453-2.92-1.427-3.987s-2.333-1.667-4.067-1.787c-0.008-0.001-0.018-0.001-0.028-0.001s-0.020 0-0.029 0.001l0.001-0zM17.112 9.997c-0.004-0-0.008-0-0.012-0-0.225 0-0.407 0.182-0.407 0.408 0 0.221 0.176 0.401 0.395 0.407h0.001c1.32 0.067 1.96 0.733 2.040 2.107 0.007 0.215 0.184 0.387 0.4 0.387 0 0 0 0 0 0h0.013c0.215-0.007 0.388-0.183 0.388-0.4 0-0.009-0-0.019-0.001-0.028l0 0.001c-0.093-1.787-1.067-2.788-2.8-2.881-0.002-0-0.005-0-0.008-0s-0.006 0-0.008 0h0z"></path>
</symbol>
<symbol id="icon-whatsapp" viewBox="0 0 24 28">
<path d="M15.391 15.219c0.266 0 2.812 1.328 2.922 1.516 0.031 0.078 0.031 0.172 0.031 0.234 0 0.391-0.125 0.828-0.266 1.188-0.359 0.875-1.813 1.437-2.703 1.437-0.75 0-2.297-0.656-2.969-0.969-2.234-1.016-3.625-2.75-4.969-4.734-0.594-0.875-1.125-1.953-1.109-3.031v-0.125c0.031-1.031 0.406-1.766 1.156-2.469 0.234-0.219 0.484-0.344 0.812-0.344 0.187 0 0.375 0.047 0.578 0.047 0.422 0 0.5 0.125 0.656 0.531 0.109 0.266 0.906 2.391 0.906 2.547 0 0.594-1.078 1.266-1.078 1.625 0 0.078 0.031 0.156 0.078 0.234 0.344 0.734 1 1.578 1.594 2.141 0.719 0.688 1.484 1.141 2.359 1.578 0.109 0.063 0.219 0.109 0.344 0.109 0.469 0 1.25-1.516 1.656-1.516zM12.219 23.5c5.406 0 9.812-4.406 9.812-9.812s-4.406-9.812-9.812-9.812-9.812 4.406-9.812 9.812c0 2.063 0.656 4.078 1.875 5.75l-1.234 3.641 3.781-1.203c1.594 1.047 3.484 1.625 5.391 1.625zM12.219 1.906c6.5 0 11.781 5.281 11.781 11.781s-5.281 11.781-11.781 11.781c-1.984 0-3.953-0.5-5.703-1.469l-6.516 2.094 2.125-6.328c-1.109-1.828-1.687-3.938-1.687-6.078 0-6.5 5.281-11.781 11.781-11.781z"></path>
</symbol>
<symbol id="icon-telegram" viewBox="0 0 28 28">
<path d="M18.578 20.422l2.297-10.828c0.203-0.953-0.344-1.328-0.969-1.094l-13.5 5.203c-0.922 0.359-0.906 0.875-0.156 1.109l3.453 1.078 8.016-5.047c0.375-0.25 0.719-0.109 0.438 0.141l-6.484 5.859-0.25 3.563c0.359 0 0.516-0.156 0.703-0.344l1.687-1.625 3.5 2.578c0.641 0.359 1.094 0.172 1.266-0.594zM28 14c0 7.734-6.266 14-14 14s-14-6.266-14-14 6.266-14 14-14 14 6.266 14 14z"></path>
</symbol>
<symbol id="icon-envelope" viewBox="0 0 28 28">
<path d="M28 11.094v12.406c0 1.375-1.125 2.5-2.5 2.5h-23c-1.375 0-2.5-1.125-2.5-2.5v-12.406c0.469 0.516 1 0.969 1.578 1.359 2.594 1.766 5.219 3.531 7.766 5.391 1.313 0.969 2.938 2.156 4.641 2.156h0.031c1.703 0 3.328-1.188 4.641-2.156 2.547-1.844 5.172-3.625 7.781-5.391 0.562-0.391 1.094-0.844 1.563-1.359zM28 6.5c0 1.75-1.297 3.328-2.672 4.281-2.438 1.687-4.891 3.375-7.313 5.078-1.016 0.703-2.734 2.141-4 2.141h-0.031c-1.266 0-2.984-1.437-4-2.141-2.422-1.703-4.875-3.391-7.297-5.078-1.109-0.75-2.688-2.516-2.688-3.938 0-1.531 0.828-2.844 2.5-2.844h23c1.359 0 2.5 1.125 2.5 2.5z"></path>
</symbol>
<symbol id="icon-phone" viewBox="0 0 32 32">
<path d="M22 20c-2 2-2 4-4 4s-4-2-6-4-4-4-4-6 2-2 4-4-4-8-6-8-6 6-6 6c0 4 4.109 12.109 8 16s12 8 16 8c0 0 6-4 6-6s-6-8-8-6z"></path>
</symbol>
<symbol id="icon-th-menu-outline" viewBox="0 0 24 24">
<path d="M19 18c0.55 0 1 0.45 1 1s-0.45 1-1 1h-14c-0.55 0-1-0.45-1-1s0.45-1 1-1h14zM19 16h-14c-1.654 0-3 1.346-3 3s1.346 3 3 3h14c1.654 0 3-1.346 3-3s-1.346-3-3-3z"></path>
<path d="M19 11c0.55 0 1 0.45 1 1s-0.45 1-1 1h-14c-0.55 0-1-0.45-1-1s0.45-1 1-1h14zM19 9h-14c-1.654 0-3 1.346-3 3s1.346 3 3 3h14c1.654 0 3-1.346 3-3s-1.346-3-3-3z"></path>
<path d="M19 4c0.55 0 1 0.45 1 1s-0.45 1-1 1h-14c-0.55 0-1-0.45-1-1s0.45-1 1-1h14zM19 2h-14c-1.654 0-3 1.346-3 3s1.346 3 3 3h14c1.654 0 3-1.346 3-3s-1.346-3-3-3z"></path>
</symbol>
<symbol id="icon-menu-mobile" viewBox="0 0 24 24">
<path d="M3 6h18v2.016h-18v-2.016zM3 12.984v-1.969h18v1.969h-18zM3 18v-2.016h18v2.016h-18z"></path>
</symbol>
</defs>
</svg>
