<svg aria-hidden="true" style="position: absolute; width: 0; height: 0; overflow: hidden;" version="1.1" xmlns="http://www.w3.org/2000/svg" xmlns:xlink="http://www.w3.org/1999/xlink">
<defs>
<symbol id="icon-cart" viewBox="0 0 32 32">
<path d="M12 29c0 1.657-1.343 3-3 3s-3-1.343-3-3c0-1.657 1.343-3 3-3s3 1.343 3 3z"></path>
<path d="M32 29c0 1.657-1.343 3-3 3s-3-1.343-3-3c0-1.657 1.343-3 3-3s3 1.343 3 3z"></path>
<path d="M32 16v-12h-24c0-1.105-0.895-2-2-2h-6v2h4l1.502 12.877c-0.915 0.733-1.502 1.859-1.502 3.123 0 2.209 1.791 4 4 4h24v-2h-24c-1.105 0-2-0.895-2-2 0-0.007 0-0.014 0-0.020l26-3.98z"></path>
</symbol>
<symbol id="icon-phone" viewBox="0 0 32 32">
<path d="M22 20c-2 2-2 4-4 4s-4-2-6-4-4-4-4-6 2-2 4-4-4-8-6-8-6 6-6 6c0 4 4.109 12.109 8 16s12 8 16 8c0 0 6-4 6-6s-6-8-8-6z"></path>
</symbol>
<symbol id="icon-logo-sho" viewBox="0 0 32 32">
<path fill="#3aaa35" style="fill: var(--color1, #3aaa35)" d="M29.838 17.73c0 0 0 0.087 0 0-0.087 1.211-0.692 2.335-1.73 3.027l-14.357 9.168c-0.086 0.087-0.259 0.173-0.346 0.173 0 0 0 0 0 0-0.086 0-0.086 0.087-0.173 0.087-0.086 0.087-0.259 0.087-0.346 0.173-0.086 0-0.086 0-0.173 0.087-0.086 0-0.173 0.087-0.259 0.087s-0.086 0-0.173 0-0.173 0-0.259 0c-0.086 0-0.173 0-0.346 0-0.086 0-0.173 0-0.259 0s-0.173 0-0.259 0c-0.086 0-0.086 0-0.173 0-0.519-0.087-1.124-0.346-1.557-0.692-0.086 0-0.086-0.087-0.173-0.087v0c0 0 0 0 0 0s0 0 0 0c-0.086 0-0.086-0.087-0.173-0.087-0.086-0.087-0.086-0.087-0.173-0.173s-0.086-0.087-0.173-0.173-0.173-0.259-0.259-0.346c-0.086-0.087-0.173-0.259-0.259-0.346 0 0 0-0.087-0.086-0.087-0.173-0.346-0.259-0.605-0.346-0.951 0-0.087 0-0.173 0-0.259s0-0.173 0-0.259l-0.951-17.124v-0.259c0-0.086 0-0.173 0-0.173 0-0.086 0-0.086 0-0.173 0 0 0-0.086 0-0.086 0-0.086 0-0.086 0-0.173s0-0.173 0-0.259c0-0.086 0-0.086 0-0.173 0.087 0 0.087-0.086 0.173-0.173 0-0.086 0-0.086 0.087-0.173 0 0 0 0 0 0v0c0 0 0 0 0 0 0-0.086 0.087-0.086 0.087-0.173 0.087-0.346 0.259-0.692 0.519-0.951 0-0.087 0.087-0.087 0.087-0.173 0.087 0 0.173-0.087 0.173-0.173 0.087-0.087 0.087-0.087 0.173-0.173s0.086-0.087 0.173-0.173c0.086 0 0.086-0.087 0.173-0.087 0.086-0.087 0.173-0.087 0.259-0.173 0.086 0 0.086-0.087 0.173-0.087s0.086-0.087 0.173-0.087c0.086 0 0.173 0 0.259 0s0.173-0.087 0.259-0.087c0.086 0 0.173-0.087 0.259-0.087 0.173 0 0.346-0.087 0.519-0.087s0.432 0 0.605 0c0.086 0 0.086 0 0.173 0v0c0.086 0 0.259 0.087 0.346 0.087s0.086 0 0.173 0.087c0.173 0.087 0.432 0.173 0.605 0.259h0.086l15.395 7.611c1.47 0.778 2.249 2.335 2.076 3.892v0z"></path>
<path fill="#fff" style="fill: var(--color2, #fff)" d="M11.762 30.962c-0.086 0-0.173 0-0.173 0-0.086 0-0.259 0-0.346 0h-0.173c-0.692-0.087-1.211-0.346-1.73-0.692-0.086-0.087-0.086-0.087-0.173-0.173v0c-0.086 0-0.086-0.087-0.173-0.173l-0.086-0.087c0 0-0.086-0.087-0.086-0.087l-0.086-0.087c-0.086-0.087-0.173-0.259-0.259-0.346-0.086-0.173-0.173-0.259-0.259-0.432l-0.086-0.087c-0.173-0.346-0.259-0.692-0.346-1.038 0-0.087 0-0.173 0-0.173 0-0.173 0-0.259 0-0.346l-1.384-17.47c0-0.086 0-0.173 0-0.173 0-0.086 0-0.086 0-0.173v-0.086c0 0 0-0.086 0-0.173s0-0.173 0-0.259c0-0.086 0-0.173 0-0.173 0-0.086 0-0.173 0.087-0.259 0 0 0-0.086 0-0.086v-0.086l0.087-0.173c0.346-0.519 0.519-0.951 0.778-1.211 0-0.087 0.087-0.087 0.173-0.173l0.173-0.173c0.087-0.087 0.087-0.173 0.173-0.259s0.173-0.087 0.173-0.173l0.173-0.087c0.173 0 0.259-0.087 0.346-0.173l0.173-0.087c0.086 0 0.173-0.087 0.259-0.087 0.086-0.087 0.173-0.087 0.259-0.087s0.173-0.087 0.259-0.087c0.086 0 0.173-0.087 0.346-0.087s0.346-0.087 0.519-0.087c0.259 0 0.432 0 0.692 0h0.173c0.173 0 0.259 0.087 0.432 0.087 0.086 0 0.086 0 0.173 0.087 0.173 0.087 0.432 0.173 0.605 0.259l0.086 0.087 15.395 7.611c1.643 0.778 2.508 2.508 2.335 4.324v0.087c-0.087 1.297-0.778 2.508-1.903 3.2l-14.357 9.168c-0.086 0-0.086 0.087-0.173 0.087v0.173l-0.432 0.087c-0.086 0.087-0.259 0.087-0.346 0.173l-0.173 0.087c-0.086 0-0.173 0.087-0.346 0.087-0.086 0-0.173 0-0.173 0-0.086 0-0.173 0-0.259 0-0.173 0-0.259 0-0.346 0zM11.503 30.097h0.259c0.086 0 0.173 0 0.259 0s0.173 0 0.173 0 0.086 0 0.173 0 0.173 0 0.259-0.087l0.173-0.087c0.086 0 0.173-0.087 0.259-0.087l0.173-0.087c0.086-0.087 0.173-0.087 0.346-0.173l14.27-9.168c0.865-0.605 1.47-1.557 1.557-2.595v-0.432c0.087-1.297-0.692-2.595-1.903-3.114l-15.481-7.697c-0.173-0.087-0.346-0.173-0.519-0.173-0.086 0-0.086 0-0.173 0s-0.259-0.087-0.346-0.087h-0.173c-0.173 0-0.346 0-0.519 0s-0.259 0-0.432 0.087c-0.086 0-0.173 0-0.259 0.087-0.086 0-0.173 0.087-0.259 0.087l-0.173 0.087c0 0-0.086 0-0.086 0.087l-0.173 0.087c-0.086 0-0.173 0.087-0.259 0.173l-0.086-0.087c0 0-0.086 0.087-0.086 0.087-0.086 0.087-0.173 0.087-0.173 0.173l-0.173 0.173c0 0-0.086 0.087-0.086 0.087-0.259 0.259-0.432 0.519-0.519 0.865 0 0 0 0.086 0 0.086l-0.087 0.173c0 0 0 0 0 0.086s0 0.173-0.087 0.173c0 0.086 0 0.086 0 0.173s0 0.173 0 0.259c0 0.086 0 0.086 0 0.173v0.086c0 0 0 0.086 0 0.086 0 0.086 0 0.086 0 0.173v0.173l1.124 17.038c0 0.087 0 0.173 0 0.259s0 0.173 0 0.173c0.086 0.259 0.173 0.605 0.259 0.865l-0.259 0.259 0.346-0.173c0.086 0.087 0.173 0.259 0.173 0.346 0.086 0.087 0.173 0.173 0.259 0.346v0c0 0 0 0 0.086 0.087l0.346 0.259 0.173 0.087v0.087c0.432 0.259 0.865 0.519 1.384 0.605h0.173c0-0.087 0-0.087 0.086-0.087z"></path>
<path fill="#f4b900" style="fill: var(--color3, #f4b900)" d="M12.281 17.211c0.259-0.087 0.346-0.087 0.605-0.173 0.086 0.346 0.086 0.692 0.173 0.951l0.259 0.778c0.086 0.346 0.259 0.692 0.346 1.038l-2.249 0.605c0-0.259-0.086-0.519-0.173-0.778l-0.086-0.173-5.795 1.557c-0.778 0.173-0.951 0.259-1.47 0.432-0.087-0.605-0.173-0.951-0.346-1.557l-1.643-5.708c-0.173-0.692-0.346-1.038-0.519-1.557l1.989-0.519c0.087 0.519 0.173 0.865 0.346 1.557l1.557 5.362 1.557-0.432-1.557-5.362c-0.173-0.692-0.346-1.038-0.519-1.557l2.162-0.432c0.087 0.519 0.173 0.865 0.346 1.557l1.557 5.362 1.557-0.432-1.557-5.362c-0.173-0.692-0.346-1.038-0.519-1.557l2.076-0.519c0.086 0.519 0.173 0.865 0.346 1.557l1.557 5.362z"></path>
<path fill="#f4b900" style="fill: var(--color3, #f4b900)" d="M13.405 15.395c-0.605-2.076 0.346-3.805 2.422-4.411s3.805 0.432 4.411 2.508c0.605 2.076-0.346 3.892-2.335 4.411-2.162 0.605-3.892-0.346-4.497-2.508zM15.395 14.876c0.346 1.211 1.124 1.73 1.989 1.47s1.211-1.038 0.865-2.249c-0.346-1.211-1.038-1.73-1.989-1.47-0.865 0.259-1.211 1.038-0.865 2.249z"></path>
<path fill="none" stroke="#fff" style="stroke: var(--color2, #fff)" stroke-linejoin="miter" stroke-linecap="butt" stroke-miterlimit="10" stroke-width="0.8649" d="M12.281 17.211c0.259-0.087 0.346-0.087 0.605-0.173 0.086 0.346 0.086 0.692 0.173 0.951l0.259 0.778c0.086 0.346 0.259 0.692 0.346 1.038l-2.249 0.605c0-0.259-0.086-0.519-0.173-0.778l-0.086-0.173-5.795 1.557c-0.778 0.173-0.951 0.259-1.47 0.432-0.087-0.605-0.173-0.951-0.346-1.557l-1.643-5.708c-0.173-0.692-0.346-1.038-0.519-1.557l1.989-0.519c0.087 0.519 0.173 0.865 0.346 1.557l1.557 5.362 1.557-0.432-1.557-5.362c-0.173-0.692-0.346-1.038-0.519-1.557l2.162-0.432c0.087 0.519 0.173 0.865 0.346 1.557l1.557 5.362 1.557-0.432-1.557-5.362c-0.173-0.692-0.346-1.038-0.519-1.557l2.076-0.519c0.086 0.519 0.173 0.865 0.346 1.557l1.557 5.362z"></path>
<path fill="none" stroke="#fff" style="stroke: var(--color2, #fff)" stroke-linejoin="miter" stroke-linecap="butt" stroke-miterlimit="10" stroke-width="0.8649" d="M13.405 15.395c-0.605-2.076 0.346-3.805 2.422-4.411s3.805 0.432 4.411 2.508c0.605 2.076-0.346 3.892-2.335 4.411-2.162 0.605-3.892-0.346-4.497-2.508zM15.395 14.876c0.346 1.211 1.124 1.73 1.989 1.47s1.211-1.038 0.865-2.249c-0.346-1.211-1.038-1.73-1.989-1.47-0.865 0.259-1.211 1.038-0.865 2.249z"></path>
<path fill="#f4b900" style="fill: var(--color3, #f4b900)" d="M10.119 23.87c0-0.087 0-0.259 0-0.432v-0.778h-0.173c-0.173 0-0.259 0-0.432 0v-0.519c0.086 0 0.259 0 0.432 0h0.865c0.173 0 0.259 0 0.432 0v0.519c-0.086 0-0.259 0-0.432 0h-0.173v0.778c0 0.173 0 0.259 0 0.432h-0.519z"></path>
<path fill="#f4b900" style="fill: var(--color3, #f4b900)" d="M12.541 22.314c0 0 0 0 0 0s0 0 0 0 0 0 0 0c0.173-0.087 0.346-0.087 0.519-0.087 0.519 0 0.778 0.346 0.778 0.778 0 0.519-0.346 0.778-0.865 0.778-0.259 0-0.346-0.087-0.519-0.173 0 0 0 0.087 0 0.087v0.087c0 0.173 0 0.173 0 0.346h-0.519c0-0.087 0-0.259 0-0.432v-1.124c0-0.173 0-0.259 0-0.432l0.605 0.173zM12.973 22.573c-0.259 0-0.432 0.173-0.432 0.432s0.173 0.432 0.432 0.432c0.259 0 0.346-0.173 0.432-0.432-0.086-0.259-0.259-0.432-0.432-0.432z"></path>
<path fill="#f4b900" style="fill: var(--color3, #f4b900)" d="M14.876 23.265c0 0.259 0.173 0.346 0.346 0.346 0.086 0 0.173 0 0.259-0.087 0 0 0.086-0.087 0.086-0.173l0.432 0.173c-0.086 0.173-0.086 0.173-0.173 0.259-0.173 0.173-0.346 0.259-0.605 0.259s-0.432-0.087-0.605-0.259c-0.173-0.173-0.259-0.432-0.259-0.692 0-0.519 0.346-0.865 0.865-0.865 0.432 0 0.692 0.259 0.778 0.692 0 0.087 0 0.173 0 0.346 0 0 0 0 0 0.087l-1.124-0.087zM15.568 22.919c0-0.173-0.173-0.259-0.346-0.259s-0.346 0.087-0.346 0.259h0.692z"></path>
<path fill="#f4b900" style="fill: var(--color3, #f4b900)" d="M17.643 22.141c-0.173 0-0.259 0-0.346 0.087 0 0.087-0.087 0.087-0.087 0.259 0.087-0.087 0.087-0.087 0.173-0.173 0.087 0 0.173-0.087 0.346-0.087 0.432 0 0.778 0.346 0.692 0.865 0 0.519-0.346 0.865-0.951 0.865-0.259 0-0.519-0.087-0.605-0.259-0.173-0.173-0.259-0.519-0.259-0.865 0-0.259 0.087-0.519 0.173-0.778 0.087-0.173 0.173-0.259 0.259-0.346s0.259-0.087 0.432-0.087h0.259c0.173 0 0.173 0 0.259-0.087l0.346 0.259c-0.087 0.087-0.087 0.087-0.173 0.173s-0.173 0.087-0.259 0.087l-0.259 0.087zM17.211 23.178c0 0.259 0.087 0.432 0.346 0.432 0.087 0 0.173 0 0.259-0.087s0.087-0.173 0.087-0.346-0.087-0.432-0.346-0.432c-0.173 0-0.346 0.173-0.346 0.432z"></path>
<path fill="#f4b900" style="fill: var(--color3, #f4b900)" d="M20.151 23.957c-0.087 0.087-0.087 0.087-0.173 0.087s-0.173 0.087-0.346 0.087c-0.173 0-0.259 0-0.432-0.087s-0.173-0.259-0.173-0.432c0-0.173 0.087-0.346 0.173-0.432 0.173-0.087 0.432-0.173 0.951-0.173v-0.087c0-0.087-0.087-0.173-0.259-0.173s-0.259 0.087-0.346 0.173l-0.519-0.087c0.087-0.173 0.087-0.259 0.259-0.346s0.346-0.173 0.605-0.173c0.259 0 0.519 0.087 0.605 0.173s0.087 0.259 0.087 0.432v0.778c0 0.173 0 0.259 0 0.432h-0.519l0.087-0.173zM20.238 23.351c-0.087 0-0.087 0-0.087 0-0.173 0-0.173 0-0.259 0-0.173 0-0.259 0.087-0.259 0.173s0.087 0.173 0.173 0.173c0.087 0 0.173 0 0.259-0.087s0.087-0.087 0.087-0.173l0.087-0.087z"></path>
<path fill="#f4b900" style="fill: var(--color3, #f4b900)" d="M23.438 20.584c0-0.432 0-0.519 0-0.951 0-0.173 0-0.173-0.087-1.384l-0.346-6.054c-0.087-0.951-0.087-1.989-0.173-2.595h3.373c-0.087 0.778-0.087 1.557-0.173 2.595l-0.259 6.054c0 0.778 0 1.211 0 1.47 0 0.173 0 0.346 0 0.865h-2.335zM23.265 25.514v-3.632h2.941v3.632h-2.941z"></path>
<path fill="none" stroke="#fff" style="stroke: var(--color2, #fff)" stroke-linejoin="miter" stroke-linecap="butt" stroke-miterlimit="10" stroke-width="0.8649" d="M23.438 20.584c0-0.432 0-0.519 0-0.951 0-0.173 0-0.173-0.087-1.384l-0.346-6.054c-0.087-0.951-0.087-1.989-0.173-2.595h3.373c-0.087 0.778-0.087 1.557-0.173 2.595l-0.259 6.054c0 0.778 0 1.211 0 1.47 0 0.173 0 0.346 0 0.865h-2.335zM23.265 25.514v-3.632h2.941v3.632h-2.941z"></path>
</symbol>
<symbol id="icon-logo-sho-expand-white--treba" viewBox="0 0 32 32">
<path fill="#3aaa35" style="fill: var(--color1, #3aaa35)" d="M29.838 17.73c0 0 0 0.087 0 0-0.087 1.211-0.692 2.335-1.73 3.027l-14.357 9.168c-0.086 0.087-0.259 0.173-0.346 0.173 0 0 0 0 0 0-0.086 0-0.086 0.087-0.173 0.087-0.086 0.087-0.259 0.087-0.346 0.173-0.086 0-0.086 0-0.173 0.087-0.086 0-0.173 0.087-0.259 0.087s-0.086 0-0.173 0-0.173 0-0.259 0c-0.086 0-0.173 0-0.346 0-0.086 0-0.173 0-0.259 0s-0.173 0-0.259 0c-0.086 0-0.086 0-0.173 0-0.519-0.087-1.124-0.346-1.557-0.692-0.086 0-0.086-0.087-0.173-0.087v0c0 0 0 0 0 0s0 0 0 0c-0.086 0-0.086-0.087-0.173-0.087-0.086-0.087-0.086-0.087-0.173-0.173s-0.086-0.087-0.173-0.173-0.173-0.259-0.259-0.346c-0.086-0.087-0.173-0.259-0.259-0.346 0 0 0-0.087-0.086-0.087-0.173-0.346-0.259-0.605-0.346-0.951 0-0.087 0-0.173 0-0.259s0-0.173 0-0.259l-0.951-17.124v-0.259c0-0.086 0-0.173 0-0.173 0-0.086 0-0.086 0-0.173 0 0 0-0.086 0-0.086 0-0.086 0-0.086 0-0.173s0-0.173 0-0.259c0-0.086 0-0.086 0-0.173 0.087 0 0.087-0.086 0.173-0.173 0-0.086 0-0.086 0.087-0.173 0 0 0 0 0 0v0c0 0 0 0 0 0 0-0.086 0.087-0.086 0.087-0.173 0.087-0.346 0.259-0.692 0.519-0.951 0-0.087 0.087-0.087 0.087-0.173 0.087 0 0.173-0.087 0.173-0.173 0.087-0.087 0.087-0.087 0.173-0.173s0.086-0.087 0.173-0.173c0.086 0 0.086-0.087 0.173-0.087 0.086-0.087 0.173-0.087 0.259-0.173 0.086 0 0.086-0.087 0.173-0.087s0.086-0.087 0.173-0.087c0.086 0 0.173 0 0.259 0s0.173-0.087 0.259-0.087c0.086 0 0.173-0.087 0.259-0.087 0.173 0 0.346-0.087 0.519-0.087s0.432 0 0.605 0c0.086 0 0.086 0 0.173 0v0c0.086 0 0.259 0.087 0.346 0.087s0.086 0 0.173 0.087c0.173 0.087 0.432 0.173 0.605 0.259h0.086l15.395 7.611c1.47 0.778 2.249 2.335 2.076 3.892v0z"></path>
<path fill="#fff" style="fill: var(--color2, #fff)" d="M11.762 30.962c-0.086 0-0.173 0-0.173 0-0.086 0-0.259 0-0.346 0h-0.173c-0.692-0.087-1.211-0.346-1.73-0.692-0.086-0.087-0.086-0.087-0.173-0.173v0c-0.086 0-0.086-0.087-0.173-0.173l-0.086-0.087c0 0-0.086-0.087-0.086-0.087l-0.086-0.087c-0.086-0.087-0.173-0.259-0.259-0.346-0.086-0.173-0.173-0.259-0.259-0.432l-0.086-0.087c-0.173-0.346-0.259-0.692-0.346-1.038 0-0.087 0-0.173 0-0.173 0-0.173 0-0.259 0-0.346l-1.384-17.47c0-0.086 0-0.173 0-0.173 0-0.086 0-0.086 0-0.173v-0.086c0 0 0-0.086 0-0.173s0-0.173 0-0.259c0-0.086 0-0.173 0-0.173 0-0.086 0-0.173 0.087-0.259 0 0 0-0.086 0-0.086v-0.086l0.087-0.173c0.346-0.519 0.519-0.951 0.778-1.211 0-0.087 0.087-0.087 0.173-0.173l0.173-0.173c0.087-0.087 0.087-0.173 0.173-0.259s0.173-0.087 0.173-0.173l0.173-0.087c0.173 0 0.259-0.087 0.346-0.173l0.173-0.087c0.086 0 0.173-0.087 0.259-0.087 0.086-0.087 0.173-0.087 0.259-0.087s0.173-0.087 0.259-0.087c0.086 0 0.173-0.087 0.346-0.087s0.346-0.087 0.519-0.087c0.259 0 0.432 0 0.692 0h0.173c0.173 0 0.259 0.087 0.432 0.087 0.086 0 0.086 0 0.173 0.087 0.173 0.087 0.432 0.173 0.605 0.259l0.086 0.087 15.395 7.611c1.643 0.778 2.508 2.508 2.335 4.324v0.087c-0.087 1.297-0.778 2.508-1.903 3.2l-14.357 9.168c-0.086 0-0.086 0.087-0.173 0.087v0.173l-0.432 0.087c-0.086 0.087-0.259 0.087-0.346 0.173l-0.173 0.087c-0.086 0-0.173 0.087-0.346 0.087-0.086 0-0.173 0-0.173 0-0.086 0-0.173 0-0.259 0-0.173 0-0.259 0-0.346 0zM11.503 30.097h0.259c0.086 0 0.173 0 0.259 0s0.173 0 0.173 0 0.086 0 0.173 0 0.173 0 0.259-0.087l0.173-0.087c0.086 0 0.173-0.087 0.259-0.087l0.173-0.087c0.086-0.087 0.173-0.087 0.346-0.173l14.27-9.168c0.865-0.605 1.47-1.557 1.557-2.595v-0.432c0.087-1.297-0.692-2.595-1.903-3.114l-15.481-7.697c-0.173-0.087-0.346-0.173-0.519-0.173-0.086 0-0.086 0-0.173 0s-0.259-0.087-0.346-0.087h-0.173c-0.173 0-0.346 0-0.519 0s-0.259 0-0.432 0.087c-0.086 0-0.173 0-0.259 0.087-0.086 0-0.173 0.087-0.259 0.087l-0.173 0.087c0 0-0.086 0-0.086 0.087l-0.173 0.087c-0.086 0-0.173 0.087-0.259 0.173l-0.086-0.087c0 0-0.086 0.087-0.086 0.087-0.086 0.087-0.173 0.087-0.173 0.173l-0.173 0.173c0 0-0.086 0.087-0.086 0.087-0.259 0.259-0.432 0.519-0.519 0.865 0 0 0 0.086 0 0.086l-0.087 0.173c0 0 0 0 0 0.086s0 0.173-0.087 0.173c0 0.086 0 0.086 0 0.173s0 0.173 0 0.259c0 0.086 0 0.086 0 0.173v0.086c0 0 0 0.086 0 0.086 0 0.086 0 0.086 0 0.173v0.173l1.124 17.038c0 0.087 0 0.173 0 0.259s0 0.173 0 0.173c0.086 0.259 0.173 0.605 0.259 0.865l-0.259 0.259 0.346-0.173c0.086 0.087 0.173 0.259 0.173 0.346 0.086 0.087 0.173 0.173 0.259 0.346v0c0 0 0 0 0.086 0.087l0.346 0.259 0.173 0.087v0.087c0.432 0.259 0.865 0.519 1.384 0.605h0.173c0-0.087 0-0.087 0.086-0.087z"></path>
<path fill="#f4b900" style="fill: var(--color3, #f4b900)" d="M12.281 17.211c0.259-0.087 0.346-0.087 0.605-0.173 0.086 0.346 0.086 0.692 0.173 0.951l0.259 0.778c0.086 0.346 0.259 0.692 0.346 1.038l-2.249 0.605c0-0.259-0.086-0.519-0.173-0.778l-0.086-0.173-5.795 1.557c-0.778 0.173-0.951 0.259-1.47 0.432-0.087-0.605-0.173-0.951-0.346-1.557l-1.643-5.708c-0.173-0.692-0.346-1.038-0.519-1.557l1.989-0.519c0.087 0.519 0.173 0.865 0.346 1.557l1.557 5.362 1.557-0.432-1.557-5.362c-0.173-0.692-0.346-1.038-0.519-1.557l2.162-0.432c0.087 0.519 0.173 0.865 0.346 1.557l1.557 5.362 1.557-0.432-1.557-5.362c-0.173-0.692-0.346-1.038-0.519-1.557l2.076-0.519c0.086 0.519 0.173 0.865 0.346 1.557l1.557 5.362z"></path>
<path fill="#f4b900" style="fill: var(--color3, #f4b900)" d="M13.405 15.395c-0.605-2.076 0.346-3.805 2.422-4.411s3.805 0.432 4.411 2.508c0.605 2.076-0.346 3.892-2.335 4.411-2.162 0.605-3.892-0.346-4.497-2.508zM15.395 14.876c0.346 1.211 1.124 1.73 1.989 1.47s1.211-1.038 0.865-2.249c-0.346-1.211-1.038-1.73-1.989-1.47-0.865 0.259-1.211 1.038-0.865 2.249z"></path>
<path fill="none" stroke="#fff" style="stroke: var(--color2, #fff)" stroke-linejoin="miter" stroke-linecap="butt" stroke-miterlimit="10" stroke-width="0.8649" d="M12.281 17.211c0.259-0.087 0.346-0.087 0.605-0.173 0.086 0.346 0.086 0.692 0.173 0.951l0.259 0.778c0.086 0.346 0.259 0.692 0.346 1.038l-2.249 0.605c0-0.259-0.086-0.519-0.173-0.778l-0.086-0.173-5.795 1.557c-0.778 0.173-0.951 0.259-1.47 0.432-0.087-0.605-0.173-0.951-0.346-1.557l-1.643-5.708c-0.173-0.692-0.346-1.038-0.519-1.557l1.989-0.519c0.087 0.519 0.173 0.865 0.346 1.557l1.557 5.362 1.557-0.432-1.557-5.362c-0.173-0.692-0.346-1.038-0.519-1.557l2.162-0.432c0.087 0.519 0.173 0.865 0.346 1.557l1.557 5.362 1.557-0.432-1.557-5.362c-0.173-0.692-0.346-1.038-0.519-1.557l2.076-0.519c0.086 0.519 0.173 0.865 0.346 1.557l1.557 5.362z"></path>
<path fill="none" stroke="#fff" style="stroke: var(--color2, #fff)" stroke-linejoin="miter" stroke-linecap="butt" stroke-miterlimit="10" stroke-width="0.8649" d="M13.405 15.395c-0.605-2.076 0.346-3.805 2.422-4.411s3.805 0.432 4.411 2.508c0.605 2.076-0.346 3.892-2.335 4.411-2.162 0.605-3.892-0.346-4.497-2.508zM15.395 14.876c0.346 1.211 1.124 1.73 1.989 1.47s1.211-1.038 0.865-2.249c-0.346-1.211-1.038-1.73-1.989-1.47-0.865 0.259-1.211 1.038-0.865 2.249z"></path>
<path fill="#fff" style="fill: var(--color2, #fff)" d="M10.119 23.87c0-0.087 0-0.259 0-0.432v-0.778h-0.173c-0.173 0-0.259 0-0.432 0v-0.519c0.086 0 0.259 0 0.432 0h0.865c0.173 0 0.259 0 0.432 0v0.519c-0.086 0-0.259 0-0.432 0h-0.173v0.778c0 0.173 0 0.259 0 0.432h-0.519z"></path>
<path fill="#fff" style="fill: var(--color2, #fff)" d="M12.541 22.314c0 0 0 0 0 0s0 0 0 0 0 0 0 0c0.173-0.087 0.346-0.087 0.519-0.087 0.519 0 0.778 0.346 0.778 0.778 0 0.519-0.346 0.778-0.865 0.778-0.259 0-0.346-0.087-0.519-0.173 0 0 0 0.087 0 0.087v0.087c0 0.173 0 0.173 0 0.346h-0.519c0-0.087 0-0.259 0-0.432v-1.124c0-0.173 0-0.259 0-0.432l0.605 0.173zM12.973 22.573c-0.259 0-0.432 0.173-0.432 0.432s0.173 0.432 0.432 0.432c0.259 0 0.346-0.173 0.432-0.432-0.086-0.259-0.259-0.432-0.432-0.432z"></path>
<path fill="#fff" style="fill: var(--color2, #fff)" d="M14.876 23.265c0 0.259 0.173 0.346 0.346 0.346 0.086 0 0.173 0 0.259-0.087 0 0 0.086-0.087 0.086-0.173l0.432 0.173c-0.086 0.173-0.086 0.173-0.173 0.259-0.173 0.173-0.346 0.259-0.605 0.259s-0.432-0.087-0.605-0.259c-0.173-0.173-0.259-0.432-0.259-0.692 0-0.519 0.346-0.865 0.865-0.865 0.432 0 0.692 0.259 0.778 0.692 0 0.087 0 0.173 0 0.346 0 0 0 0 0 0.087l-1.124-0.087zM15.568 22.919c0-0.173-0.173-0.259-0.346-0.259s-0.346 0.087-0.346 0.259h0.692z"></path>
<path fill="#fff" style="fill: var(--color2, #fff)" d="M17.643 22.141c-0.173 0-0.259 0-0.346 0.087 0 0.087-0.087 0.087-0.087 0.259 0.087-0.087 0.087-0.087 0.173-0.173 0.087 0 0.173-0.087 0.346-0.087 0.432 0 0.778 0.346 0.692 0.865 0 0.519-0.346 0.865-0.951 0.865-0.259 0-0.519-0.087-0.605-0.259-0.173-0.173-0.259-0.519-0.259-0.865 0-0.259 0.087-0.519 0.173-0.778 0.087-0.173 0.173-0.259 0.259-0.346s0.259-0.087 0.432-0.087h0.259c0.173 0 0.173 0 0.259-0.087l0.346 0.259c-0.087 0.087-0.087 0.087-0.173 0.173s-0.173 0.087-0.259 0.087l-0.259 0.087zM17.211 23.178c0 0.259 0.087 0.432 0.346 0.432 0.087 0 0.173 0 0.259-0.087s0.087-0.173 0.087-0.346-0.087-0.432-0.346-0.432c-0.173 0-0.346 0.173-0.346 0.432z"></path>
<path fill="#fff" style="fill: var(--color2, #fff)" d="M20.151 23.957c-0.087 0.087-0.087 0.087-0.173 0.087s-0.173 0.087-0.346 0.087c-0.173 0-0.259 0-0.432-0.087s-0.173-0.259-0.173-0.432c0-0.173 0.087-0.346 0.173-0.432 0.173-0.087 0.432-0.173 0.951-0.173v-0.087c0-0.087-0.087-0.173-0.259-0.173s-0.259 0.087-0.346 0.173l-0.519-0.087c0.087-0.173 0.087-0.259 0.259-0.346s0.346-0.173 0.605-0.173c0.259 0 0.519 0.087 0.605 0.173s0.087 0.259 0.087 0.432v0.778c0 0.173 0 0.259 0 0.432h-0.519l0.087-0.173zM20.238 23.351c-0.087 0-0.087 0-0.087 0-0.173 0-0.173 0-0.259 0-0.173 0-0.259 0.087-0.259 0.173s0.087 0.173 0.173 0.173c0.087 0 0.173 0 0.259-0.087s0.087-0.087 0.087-0.173l0.087-0.087z"></path>
<path fill="#f4b900" style="fill: var(--color3, #f4b900)" d="M23.438 20.584c0-0.432 0-0.519 0-0.951 0-0.173 0-0.173-0.087-1.384l-0.346-6.054c-0.087-0.951-0.087-1.989-0.173-2.595h3.373c-0.087 0.778-0.087 1.557-0.173 2.595l-0.259 6.054c0 0.778 0 1.211 0 1.47 0 0.173 0 0.346 0 0.865h-2.335zM23.265 25.514v-3.632h2.941v3.632h-2.941z"></path>
<path fill="none" stroke="#fff" style="stroke: var(--color2, #fff)" stroke-linejoin="miter" stroke-linecap="butt" stroke-miterlimit="10" stroke-width="0.8649" d="M23.438 20.584c0-0.432 0-0.519 0-0.951 0-0.173 0-0.173-0.087-1.384l-0.346-6.054c-0.087-0.951-0.087-1.989-0.173-2.595h3.373c-0.087 0.778-0.087 1.557-0.173 2.595l-0.259 6.054c0 0.778 0 1.211 0 1.47 0 0.173 0 0.346 0 0.865h-2.335zM23.265 25.514v-3.632h2.941v3.632h-2.941z"></path>
</symbol>
<symbol id="icon-logo-sho-circle" viewBox="0 0 38 32">
<path fill="#05b400" style="fill: var(--color1, #05b400); stroke: var(--color2, #fff)" stroke="#fff" stroke-linejoin="miter" stroke-linecap="butt" stroke-miterlimit="10" stroke-width="1.2261" d="M34.452 16c0 8.498-6.889 15.387-15.387 15.387s-15.387-6.889-15.387-15.387c0-8.498 6.889-15.387 15.387-15.387s15.387 6.889 15.387 15.387z"></path>
<path fill="#f4b900" style="fill: var(--color3, #f4b900)" d="M16.233 16.834c0.368-0.123 0.49-0.123 0.858-0.245 0.123 0.49 0.123 0.981 0.245 1.349l0.368 1.103c0.123 0.49 0.368 0.981 0.49 1.471l-3.188 0.858c0-0.368-0.123-0.736-0.245-1.103l-0.123-0.245-8.215 2.207c-1.103 0.245-1.349 0.368-2.084 0.613-0.123-0.858-0.245-1.349-0.49-2.207l-2.329-8.092c-0.245-0.981-0.49-1.471-0.736-2.207l2.82-0.736c0.123 0.736 0.245 1.226 0.49 2.207l2.207 7.602 2.207-0.613-2.207-7.602c-0.245-0.981-0.49-1.471-0.736-2.207l3.065-0.613c0.123 0.736 0.245 1.226 0.49 2.207l2.207 7.602 2.207-0.613-2.207-7.602c-0.245-0.981-0.49-1.471-0.736-2.207l2.943-0.736c0.123 0.736 0.245 1.226 0.49 2.207l2.207 7.602z"></path>
<path fill="#f4b900" style="fill: var(--color3, #f4b900)" d="M17.827 14.259c-0.858-2.943 0.49-5.395 3.433-6.253s5.395 0.613 6.253 3.556-0.49 5.517-3.31 6.253c-3.065 0.858-5.517-0.49-6.375-3.556zM20.647 13.523c0.49 1.716 1.594 2.452 2.82 2.084s1.716-1.471 1.226-3.188-1.471-2.452-2.82-2.084c-1.226 0.368-1.716 1.471-1.226 3.188z"></path>
<path fill="none" stroke="#fff" style="stroke: var(--color2, #fff)" stroke-linejoin="miter" stroke-linecap="butt" stroke-miterlimit="10" stroke-width="1.2261" d="M16.233 16.834c0.368-0.123 0.49-0.123 0.858-0.245 0.123 0.49 0.123 0.981 0.245 1.349l0.368 1.103c0.123 0.49 0.368 0.981 0.49 1.471l-3.188 0.858c0-0.368-0.123-0.736-0.245-1.103l-0.123-0.245-8.215 2.207c-1.103 0.245-1.349 0.368-2.084 0.613-0.123-0.858-0.245-1.349-0.49-2.207l-2.329-8.092c-0.245-0.981-0.49-1.471-0.736-2.207l2.82-0.736c0.123 0.736 0.245 1.226 0.49 2.207l2.207 7.602 2.207-0.613-2.207-7.602c-0.245-0.981-0.49-1.471-0.736-2.207l3.065-0.613c0.123 0.736 0.245 1.226 0.49 2.207l2.207 7.602 2.207-0.613-2.207-7.602c-0.245-0.981-0.49-1.471-0.736-2.207l2.943-0.736c0.123 0.736 0.245 1.226 0.49 2.207l2.207 7.602z"></path>
<path fill="none" stroke="#fff" style="stroke: var(--color2, #fff)" stroke-linejoin="miter" stroke-linecap="butt" stroke-miterlimit="10" stroke-width="1.2261" d="M17.827 14.259c-0.858-2.943 0.49-5.395 3.433-6.253s5.395 0.613 6.253 3.556-0.49 5.517-3.31 6.253c-3.065 0.858-5.517-0.49-6.375-3.556zM20.647 13.523c0.49 1.716 1.594 2.452 2.82 2.084s1.716-1.471 1.226-3.188-1.471-2.452-2.82-2.084c-1.226 0.368-1.716 1.471-1.226 3.188z"></path>
<path fill="#fff" style="fill: var(--color2, #fff)" d="M13.168 26.274v-1.716h-0.858v-0.736h2.452v0.736h-0.858v1.716h-0.736z"></path>
<path fill="#fff" style="fill: var(--color2, #fff)" d="M16.601 24.067v0c0.245-0.123 0.49-0.123 0.736-0.123 0.736 0 1.103 0.49 1.103 1.103 0 0.736-0.49 1.103-1.226 1.103-0.368 0-0.49-0.123-0.736-0.245v0.736h-0.736v-2.82l0.858 0.245zM17.214 24.435c-0.368 0-0.613 0.245-0.613 0.613s0.245 0.613 0.613 0.613 0.49-0.245 0.613-0.613c-0.123-0.368-0.368-0.613-0.613-0.613z"></path>
<path fill="#fff" style="fill: var(--color2, #fff)" d="M19.911 25.416c0 0.368 0.245 0.49 0.49 0.49 0.123 0 0.245 0 0.368-0.123 0 0 0.123-0.123 0.123-0.245l0.613 0.245q-0.123 0.245-0.245 0.368c-0.245 0.245-0.49 0.368-0.858 0.368s-0.613-0.123-0.858-0.368c-0.245-0.245-0.368-0.613-0.368-0.981 0-0.736 0.49-1.226 1.226-1.226 0.613 0 0.981 0.368 1.103 0.981v0.613l-1.594-0.123zM20.892 24.926c0-0.245-0.245-0.368-0.49-0.368s-0.49 0.123-0.49 0.368h0.981z"></path>
<path fill="#fff" style="fill: var(--color2, #fff)" d="M23.834 23.822c-0.245 0-0.368 0-0.49 0.123 0 0.123-0.123 0.123-0.123 0.368l0.245-0.245c0.123 0 0.245-0.123 0.49-0.123 0.613 0 1.103 0.49 0.981 1.226 0 0.736-0.49 1.226-1.349 1.226-0.368 0-0.736-0.123-0.858-0.368-0.245-0.245-0.368-0.736-0.368-1.226 0-0.368 0.123-0.736 0.245-1.103 0.123-0.245 0.245-0.368 0.368-0.49s0.368-0.123 0.613-0.123h0.368q0.245 0 0.368-0.123l0.49 0.368-0.245 0.245c-0.123 0.123-0.245 0.123-0.368 0.123l-0.368 0.123zM23.221 25.294c0 0.368 0.123 0.613 0.49 0.613 0.123 0 0.245 0 0.368-0.123s0.123-0.245 0.123-0.49-0.123-0.613-0.49-0.613c-0.245 0-0.49 0.245-0.49 0.613z"></path>
<path fill="#fff" style="fill: var(--color2, #fff)" d="M27.39 26.397q-0.123 0.123-0.245 0.123c-0.123 0-0.245 0.123-0.49 0.123s-0.368 0-0.613-0.123-0.245-0.368-0.245-0.613 0.123-0.49 0.245-0.613c0.245-0.123 0.613-0.245 1.349-0.245v-0.123c0-0.123-0.123-0.245-0.368-0.245s-0.368 0.123-0.49 0.245l-0.736-0.123c0.123-0.245 0.123-0.368 0.368-0.49s0.49-0.245 0.858-0.245 0.736 0.123 0.858 0.245 0.123 0.368 0.123 0.613v1.716h-0.736l0.123-0.245zM27.513 25.539h-0.49c-0.245 0-0.368 0.123-0.368 0.245s0.123 0.245 0.245 0.245 0.245 0 0.368-0.123q0.123-0.123 0.123-0.245l0.123-0.123z"></path>
<path fill="#f4b900" style="fill: var(--color3, #f4b900)" d="M32.049 21.615v-1.349q0-0.245-0.123-1.962l-0.49-8.582c-0.123-1.349-0.123-2.82-0.245-3.678h4.782c-0.123 1.103-0.123 2.207-0.245 3.678l-0.368 8.582v3.31h-3.31zM31.804 28.604v-5.149h4.169v5.149h-4.169z"></path>
<path fill="none" stroke="#fff" style="stroke: var(--color2, #fff)" stroke-linejoin="miter" stroke-linecap="butt" stroke-miterlimit="10" stroke-width="1.2261" d="M32.049 21.615v-1.349q0-0.245-0.123-1.962l-0.49-8.582c-0.123-1.349-0.123-2.82-0.245-3.678h4.782c-0.123 1.103-0.123 2.207-0.245 3.678l-0.368 8.582v3.31h-3.31zM31.804 28.604v-5.149h4.169v5.149h-4.169z"></path>
</symbol>
<symbol id="icon--14" viewBox="0 0 33 32">
<path fill="#05b400" style="fill: var(--color1, #05b400); stroke: var(--color2, #fff)" stroke="#fff" stroke-linejoin="miter" stroke-linecap="butt" stroke-miterlimit="10" stroke-width="1.2308" d="M31.815 16c0 8.497-6.888 15.385-15.385 15.385s-15.385-6.888-15.385-15.385c0-8.497 6.888-15.385 15.385-15.385s15.385 6.888 15.385 15.385z"></path>
<path fill="#f4b900" style="fill: var(--color3, #f4b900); stroke: var(--color2, #fff)" stroke="#fff" stroke-linejoin="miter" stroke-linecap="butt" stroke-miterlimit="10" stroke-width="0.6154" d="M14.326 15.262c0.32-0.16 0.431-0.16 0.751-0.32 0.16 0.48 0.197 0.985 0.345 1.342l0.431 1.083c0.16 0.48 0.418 0.96 0.578 1.452l-2.782 1.132c-0.037-0.369-0.185-0.738-0.32-1.095l-0.135-0.234-7.163 2.917c-0.665 0.234-0.972 0.382-1.317 0.542-0.258 0.123-0.566-0.037-0.64-0.345-0.135-0.542-0.283-0.972-0.505-1.6l-2.831-8c-0.111-0.345-0.222-0.628-0.32-0.886-0.283-0.702 0-1.514 0.64-1.76l0.578-0.234c0.369-0.148 0.775 0.086 0.898 0.505s0.246 0.812 0.443 1.415l2.437 6.794c0.148 0.394 0.542 0.591 0.886 0.455l0.64-0.271c0.357-0.148 0.529-0.603 0.382-0.997l-2.425-6.782c-0.222-0.702-0.431-1.145-0.628-1.612-0.123-0.295 0-0.64 0.283-0.726l1.723-0.566c0.246-0.074 0.505 0.086 0.578 0.357 0.135 0.492 0.283 0.948 0.517 1.686l2.437 6.794c0.148 0.394 0.542 0.591 0.886 0.455l0.64-0.271c0.357-0.148 0.529-0.603 0.382-0.997l-2.425-6.782c-0.234-0.714-0.431-1.169-0.64-1.637-0.123-0.283 0-0.615 0.258-0.714l1.625-0.628c0.246-0.098 0.529 0.062 0.603 0.357 0.135 0.48 0.283 0.935 0.505 1.662l2.683 7.508z"></path>
<path fill="#f4b900" style="fill: var(--color3, #f4b900); stroke: var(--color2, #fff)" stroke="#fff" stroke-linejoin="miter" stroke-linecap="butt" stroke-miterlimit="10" stroke-width="0.6154" d="M17.058 14.732c-0.615-2.154 0.345-3.951 2.449-4.578s3.852 0.455 4.455 2.609-0.345 4.049-2.363 4.578c-2.191 0.628-3.938-0.357-4.542-2.609zM19.065 14.191c0.345 1.255 1.132 1.797 2.006 1.526s1.218-1.083 0.874-2.338-1.046-1.797-2.006-1.526c-0.874 0.271-1.218 1.083-0.874 2.338z"></path>
<path fill="#fff" style="fill: var(--color2, #fff)" d="M7.311 22.4h2.978v0.862h-0.997v2.646h-0.985v-2.646h-0.997v-0.862z"></path>
<path fill="#fff" style="fill: var(--color2, #fff)" d="M10.732 22.4h1.625c0.357 0 0.615 0.098 0.8 0.283 0.172 0.185 0.271 0.455 0.271 0.8s-0.098 0.628-0.283 0.837c-0.197 0.197-0.492 0.295-0.886 0.295h-0.542v1.305h-0.985v-3.508zM11.717 23.902h0.246c0.185 0 0.32-0.037 0.394-0.111s0.111-0.16 0.111-0.283-0.037-0.209-0.098-0.283c-0.062-0.074-0.197-0.111-0.369-0.111h-0.283v0.788z"></path>
<path fill="#fff" style="fill: var(--color2, #fff)" d="M13.932 22.4h2.622v0.751h-1.649v0.554h1.526v0.714h-1.526v0.689h1.686v0.8h-2.671v-3.508z"></path>
<path fill="#fff" style="fill: var(--color2, #fff)" d="M18.117 23.754h0.529c0.48 0 0.837 0.098 1.071 0.283s0.345 0.48 0.345 0.874c0 0.32-0.111 0.566-0.32 0.738s-0.517 0.258-0.911 0.258h-1.686v-3.508h2.671v0.714h-1.698v0.64zM18.117 25.157h0.505c0.308 0 0.455-0.123 0.455-0.369 0-0.209-0.148-0.32-0.455-0.32h-0.505v0.689z"></path>
<path fill="#fff" style="fill: var(--color2, #fff)" d="M22.535 25.329h-1.108l-0.16 0.578h-0.997l1.194-3.508h1.071l1.194 3.508h-1.022l-0.16-0.578zM22.326 24.566l-0.345-1.268-0.345 1.268h0.689z"></path>
<path fill="#f4b900" style="fill: var(--color3, #f4b900); stroke: var(--color2, #fff)" stroke="#fff" stroke-linejoin="miter" stroke-linecap="butt" stroke-miterlimit="10" stroke-width="0.6154" d="M26.105 15.372l0.295-1.071q0.049-0.197 0.345-1.588l1.538-6.917c0.16-0.812 0.369-1.674 0.517-2.351 0.074-0.332 0.382-0.542 0.689-0.455l2.388 0.665c0.308 0.086 0.468 0.431 0.357 0.751-0.234 0.677-0.455 1.403-0.775 2.277l-2.166 6.732-0.455 1.649-0.271 0.972-2.449-0.689zM24.529 20.308l0.825-2.954c0.086-0.308 0.394-0.505 0.689-0.418l2.031 0.566c0.295 0.086 0.455 0.406 0.369 0.714l-0.825 2.954c-0.086 0.308-0.394 0.505-0.689 0.418l-2.031-0.566c-0.295-0.086-0.455-0.406-0.369-0.714z"></path>
</symbol>
<symbol id="icon--1" viewBox="0 0 36 32">
<path fill="#05b400" style="fill: var(--color1, #05b400); stroke: var(--color2, #fff)" stroke="#fff" stroke-linejoin="miter" stroke-linecap="butt" stroke-miterlimit="10" stroke-width="1.2308" d="M35.212 16c0 8.497-6.888 15.385-15.385 15.385s-15.385-6.888-15.385-15.385c0-8.497 6.888-15.385 15.385-15.385s15.385 6.888 15.385 15.385z"></path>
<path fill="#f4b900" style="fill: var(--color3, #f4b900); stroke: var(--color2, #fff)" stroke="#fff" stroke-linejoin="miter" stroke-linecap="butt" stroke-miterlimit="10" stroke-width="0.6154" d="M17.28 13.822q0.443-0.148 0.886-0.443c0.148 0.591 0.295 1.194 0.443 1.637l0.591 1.342c0.148 0.591 0.443 1.194 0.738 1.785l-3.397 1.342c0-0.443-0.148-0.898-0.443-1.342l-0.148-0.295-8.578 3.582c-0.738 0.295-1.182 0.443-1.625 0.591-0.295 0.148-0.738 0-0.738-0.443-0.148-0.591-0.295-1.194-0.591-1.932l-3.557-9.538c-0.148-0.443-0.295-0.751-0.443-1.046-0.295-0.898 0-1.785 0.738-2.092l0.738-0.295c0.443-0.148 0.886 0.148 1.034 0.591s0.295 1.046 0.591 1.785l2.954 8.197c0.148 0.443 0.591 0.751 1.034 0.591l0.738-0.295c0.443-0.148 0.591-0.751 0.443-1.194l-2.954-8.197c-0.295-0.898-0.443-1.342-0.738-1.932-0.148-0.295 0-0.751 0.295-0.898l2.068-0.751c0.295-0.148 0.591 0.148 0.738 0.443 0.148 0.591 0.295 1.194 0.591 2.092l2.954 8.197c0.148 0.443 0.591 0.751 1.034 0.591l0.738-0.295c0.443-0.148 0.591-0.751 0.443-1.194l-2.954-8.197c-0.295-0.898-0.591-1.342-0.738-1.932-0.148-0.295 0-0.751 0.295-0.898l1.92-0.751c0.295-0.148 0.591 0.148 0.738 0.443 0.148 0.591 0.295 1.194 0.591 1.932l3.545 8.788z"></path>
<path fill="#f4b900" style="fill: var(--color3, #f4b900); stroke: var(--color2, #fff)" stroke="#fff" stroke-linejoin="miter" stroke-linecap="butt" stroke-miterlimit="10" stroke-width="0.6154" d="M20.443 14.769c-0.615-2.215 0.369-3.938 2.462-4.554s3.815 0.492 4.431 2.585c0.615 2.215-0.369 4.062-2.338 4.554-2.215 0.615-3.938-0.369-4.554-2.585zM22.412 14.277c0.369 1.231 1.108 1.846 1.969 1.477 0.862-0.246 1.231-1.108 0.862-2.338s-1.108-1.846-1.969-1.477c-0.862 0.246-1.231 1.108-0.862 2.338z"></path>
<path fill="#fff" style="fill: var(--color2, #fff)" d="M10.671 22.449h2.978v0.862h-0.997v2.646h-0.985v-2.646h-0.997v-0.862z"></path>
<path fill="#fff" style="fill: var(--color2, #fff)" d="M14.092 22.449h1.625c0.357 0 0.615 0.098 0.8 0.283 0.172 0.185 0.271 0.455 0.271 0.8s-0.098 0.628-0.283 0.837c-0.197 0.197-0.492 0.295-0.886 0.295h-0.542v1.305h-0.985v-3.508zM15.077 23.951h0.246c0.185 0 0.32-0.037 0.394-0.111s0.111-0.16 0.111-0.283-0.037-0.209-0.098-0.283c-0.062-0.074-0.197-0.111-0.369-0.111h-0.283v0.788z"></path>
<path fill="#fff" style="fill: var(--color2, #fff)" d="M17.292 22.449h2.622v0.751h-1.649v0.554h1.526v0.714h-1.526v0.689h1.686v0.8h-2.671v-3.508z"></path>
<path fill="#fff" style="fill: var(--color2, #fff)" d="M21.477 23.803h0.529c0.48 0 0.837 0.098 1.071 0.283s0.345 0.48 0.345 0.874c0 0.32-0.111 0.566-0.32 0.738s-0.517 0.258-0.911 0.258h-1.686v-3.508h2.671v0.714h-1.698v0.64zM21.477 25.206h0.505c0.308 0 0.455-0.123 0.455-0.369 0-0.209-0.148-0.32-0.455-0.32h-0.505v0.689z"></path>
<path fill="#fff" style="fill: var(--color2, #fff)" d="M25.883 25.378h-1.108l-0.16 0.578h-0.997l1.194-3.508h1.071l1.194 3.508h-1.022l-0.16-0.578zM25.674 24.615l-0.345-1.268-0.345 1.268h0.702z"></path>
<path fill="#f4b900" style="fill: var(--color3, #f4b900); stroke: var(--color2, #fff)" stroke="#fff" stroke-linejoin="miter" stroke-linecap="butt" stroke-miterlimit="10" stroke-width="0.6154" d="M29.428 15.385c0.123-0.492 0.123-0.615 0.246-1.108q0-0.246 0.369-1.6l1.477-6.892c0.123-0.862 0.369-1.723 0.492-2.338 0.123-0.369 0.369-0.492 0.738-0.492l2.338 0.615c0.246 0.123 0.492 0.369 0.369 0.738-0.246 0.615-0.492 1.354-0.738 2.338l-2.215 6.769c-0.246 0.862-0.369 1.354-0.492 1.6 0 0.246-0.123 0.369-0.246 0.985l-2.338-0.615zM27.951 20.308l0.862-2.954c0.123-0.369 0.369-0.492 0.738-0.369l2.092 0.615c0.246 0.123 0.492 0.369 0.369 0.738l-0.862 2.954c-0.123 0.369-0.369 0.492-0.738 0.369l-2.092-0.615c-0.369 0-0.492-0.369-0.369-0.738z"></path>
</symbol>
</defs>
</svg>
