<?xml version="1.0" encoding="UTF-8"?>
<svg id="_Слой_2" data-name="Слой 2" xmlns="http://www.w3.org/2000/svg" viewBox="0 0 74.36 112.18">
  <defs>
    <style>
      .cls-1, .cls-2, .cls-3 {
        fill: none;
      }

      .cls-4 {
        letter-spacing: -.12em;
      }

      .cls-5 {
        letter-spacing: -.12em;
      }

      .cls-6, .cls-7, .cls-2, .cls-8, .cls-3 {
        font-family: HiraKakuStd-W8-83pv-RKSJ-H, 'Hiragino Kaku Gothic Std';
        isolation: isolate;
      }

      .cls-6, .cls-7, .cls-8 {
        fill: #f4b900;
      }

      .cls-6, .cls-3 {
        font-size: 27.88px;
      }

      .cls-7, .cls-2 {
        font-size: 48.31px;
      }

      .cls-2, .cls-9, .cls-3 {
        stroke: #fff;
        stroke-miterlimit: 10;
      }

      .cls-10 {
        letter-spacing: -.1em;
      }

      .cls-11 {
        letter-spacing: -.05em;
      }

      .cls-12 {
        letter-spacing: -.05em;
      }

      .cls-9 {
        fill: #3aaa35;
      }

      .cls-13 {
        letter-spacing: -.06em;
      }

      .cls-14 {
        letter-spacing: -.11em;
      }

      .cls-8 {
        font-size: 6.99px;
      }
    </style>
  </defs>
  <g id="_Слой_1-2" data-name="Слой 1">
    <g>
      <rect class="cls-1" x="66.47" y="3.03" width="1.42" height="2.59"/>
      <path class="cls-9" d="m73.78,30.72s0,.11-.01.16c-.22,2.92-1.74,5.72-4.35,7.4l-35.89,23.21c-.3.19-.61.36-.92.51,0,.02-.03.02-.04.02-.12.05-.25.12-.38.17-.27.13-.55.24-.83.32-.15.04-.28.09-.43.13-.23.06-.47.12-.71.16-.14.03-.28.06-.42.07-.19.03-.38.05-.57.06-.25.02-.5.03-.76.03-.19,0-.38-.01-.57-.02-.19.01-.39,0-.57-.03-.16-.02-.31-.04-.46-.06-1.39-.25-2.72-.8-3.87-1.65-.14-.1-.27-.19-.4-.31l-.03-.03s0,0,0-.01c-.02-.01-.03-.02-.05-.04-.12-.07-.23-.17-.34-.29-.14-.13-.26-.25-.39-.37s-.24-.27-.37-.4c-.23-.28-.45-.56-.66-.86-.2-.3-.39-.61-.57-.93-.05-.09-.09-.17-.14-.27-.39-.77-.66-1.57-.82-2.39-.04-.19-.07-.4-.1-.59-.03-.25-.05-.48-.07-.73l-2.9-43.06v-.16s-.01-.37-.01-.37c-.01-.17-.01-.33-.01-.49,0-.12,0-.25.01-.36,0-.06.01-.13.02-.19.01-.15.02-.29.04-.44.02-.21.05-.42.09-.62.02-.15.05-.31.09-.46.04-.18.09-.36.15-.55.04-.14.08-.28.14-.42,0-.02.01-.05.03-.07h0s0-.02.01-.03c.05-.15.12-.29.17-.44.37-.86.86-1.66,1.44-2.38.09-.12.2-.24.3-.35.14-.15.28-.3.43-.45.15-.15.29-.29.45-.42.15-.12.29-.24.44-.34.12-.09.23-.17.36-.26.24-.16.49-.32.75-.46.12-.06.22-.12.34-.18.16-.09.3-.15.46-.21.18-.07.36-.15.54-.21.2-.07.41-.14.62-.2.23-.07.46-.13.7-.17.4-.09.8-.14,1.21-.17.51-.04,1.04-.03,1.56.02.14.02.27.03.42.05h.04c.28.05.58.11.86.18.15.03.28.07.43.12.5.14.99.34,1.47.58l.16.09,38.71,19.29c3.72,1.85,5.71,5.89,5.21,9.87Z"/>
      <text class="cls-6" transform="translate(7.46 39.69) rotate(-15.54) scale(.96 1) skewX(.66)"><tspan class="cls-12" x="0" y="0">Щ</tspan><tspan class="cls-11" x="26.34" y="0">о</tspan></text>
      <text class="cls-3" transform="translate(7.46 39.69) rotate(-15.54) scale(.96 1) skewX(.66)"><tspan class="cls-12" x="0" y="0">Щ</tspan><tspan class="cls-11" x="26.34" y="0">о</tspan></text>
      <text class="cls-8" transform="translate(22.23 45.8) rotate(1.53) scale(.96 1) skewX(-.07)"><tspan class="cls-4" x="0" y="0">т</tspan><tspan class="cls-10" x="6.14" y="0">р</tspan><tspan class="cls-14" x="12.46" y="0">е</tspan><tspan class="cls-5" x="18.66" y="0">б</tspan><tspan class="cls-13" x="24.8" y="0">а</tspan></text>
      <text class="cls-7" transform="translate(54.41 48.88) rotate(-.25) scale(.75 1) skewX(.01)"><tspan x="0" y="0">!</tspan></text>
      <text class="cls-2" transform="translate(54.41 48.88) rotate(-.25) scale(.75 1) skewX(.01)"><tspan x="0" y="0">!</tspan></text>
    </g>
  </g>
</svg>